<?xml version="1.0" standalone="no"?>
<!DOCTYPE svg PUBLIC "-//W3C//DTD SVG 20010904//EN"
 "http://www.w3.org/TR/2001/REC-SVG-20010904/DTD/svg10.dtd">
<svg version="1.0" xmlns="http://www.w3.org/2000/svg"
 width="895.000000pt" height="177.000000pt" viewBox="0 0 895.000000 177.000000"
 preserveAspectRatio="xMidYMid meet">
<metadata>
Created by potrace 1.16, written by Peter Selinger 2001-2019
</metadata>
<g transform="translate(0.000000,177.000000) scale(0.100000,-0.100000)"
fill="#000000" stroke="none">
<path d="M1969 1759 c-318 -16 -546 -57 -682 -123 -78 -37 -131 -85 -283 -251
-90 -99 -128 -130 -357 -287 -65 -44 -145 -108 -180 -140 l-62 -60 23 -18 c12
-10 22 -22 22 -27 0 -10 -73 -83 -83 -83 -4 0 11 16 33 36 22 20 40 40 40 44
0 11 -81 30 -125 30 -68 0 -141 -47 -133 -87 2 -10 21 -26 42 -36 34 -16 38
-21 33 -46 -9 -43 -78 -152 -104 -164 -25 -11 -29 -22 -13 -32 5 -3 10 -17 10
-31 0 -30 -32 -45 -73 -33 -27 8 -67 -6 -67 -23 0 -15 46 -38 78 -38 42 0 97
23 110 46 10 17 13 16 64 -11 44 -24 68 -30 140 -33 48 -3 100 0 116 6 l29 10
6 -63 c10 -132 94 -251 217 -309 58 -27 75 -30 155 -30 115 0 183 26 260 95
50 47 125 168 125 205 0 10 8 10 38 1 27 -9 267 -12 892 -12 783 0 858 1 892
17 l38 17 6 -27 c25 -107 138 -232 245 -273 98 -37 212 -34 301 8 127 60 215
184 226 319 5 64 5 64 35 64 l31 0 -45 48 c-44 45 -115 142 -105 142 3 0 23
-26 45 -58 57 -84 100 -119 158 -127 54 -7 168 8 221 31 35 14 37 14 56 -10
61 -73 198 -54 195 27 -1 21 -3 25 -6 11 -3 -17 -12 -21 -55 -22 -72 -1 -92
11 -85 55 6 36 -3 52 -100 181 -18 24 -33 47 -33 52 0 5 16 12 35 16 70 13 71
63 2 95 -51 23 -106 24 -155 3 l-37 -15 35 -31 35 -31 -35 26 c-30 21 -35 30
-32 59 3 30 -4 40 -60 94 -79 75 -154 126 -310 211 -180 97 -198 110 -373 288
-175 177 -206 198 -351 235 -222 57 -637 81 -1045 59z m627 -49 c272 -21 409
-51 539 -117 57 -30 98 -65 225 -193 85 -86 180 -175 210 -198 64 -47 290
-176 297 -168 3 2 -6 10 -19 17 -257 135 -366 219 -475 364 l-45 60 43 -50
c104 -122 174 -179 335 -274 180 -107 271 -170 329 -232 l40 -42 -37 27 c-20
15 -39 34 -42 42 -3 7 -10 14 -16 14 -6 0 -8 -5 -4 -12 8 -13 1 -9 -76 42 -30
20 -100 61 -155 90 -177 95 -230 134 -388 293 -138 139 -160 157 -237 195
-143 69 -302 102 -595 122 -396 26 -835 -5 -1053 -76 -149 -49 -259 -127 -390
-277 -91 -103 -151 -154 -282 -239 -126 -80 -145 -89 -57 -24 21 15 36 30 33
33 -5 5 -112 -67 -186 -125 -37 -29 -40 -31 -20 -8 14 15 70 60 125 99 172
122 261 196 329 273 36 42 66 71 66 66 0 -18 -169 -188 -239 -242 -39 -29 -69
-56 -66 -58 12 -12 170 127 312 273 169 174 222 212 353 255 80 26 266 58 397
69 143 12 600 13 749 1z m-156 -99 c-161 -6 -193 -14 -205 -52 -4 -11 -9 -18
-12 -16 -2 3 1 15 7 27 21 40 64 49 220 48 l145 -2 -155 -5z m-492 -8 c-26 -2
-71 -2 -100 0 -29 2 -8 3 47 3 55 0 79 -1 53 -3z m725 0 c-13 -2 -33 -2 -45 0
-13 2 -3 4 22 4 25 0 35 -2 23 -4z m-895 -10 c-10 -2 -26 -2 -35 0 -10 3 -2 5
17 5 19 0 27 -2 18 -5z m261 -9 c37 -26 51 -74 51 -173 0 -80 -3 -93 -23 -117
l-24 -27 -179 0 c-166 -1 -170 -1 -49 -6 113 -4 85 -6 -210 -17 -224 -8 -351
-9 -372 -2 -53 16 -54 59 -2 103 19 16 18 13 -4 -14 -16 -18 -27 -41 -25 -50
6 -32 48 -37 245 -33 l191 4 -4 71 c-3 40 -1 78 4 86 11 16 209 40 338 41 76
0 82 -1 88 -22 10 -40 6 -92 -9 -123 l-15 -30 21 25 c19 22 20 35 17 128 l-3
104 -37 34 c-40 36 -39 46 1 18z m704 9 c-7 -2 -21 -2 -30 0 -10 3 -4 5 12 5
17 0 24 -2 18 -5z m-1030 -10 c-7 -2 -21 -2 -30 0 -10 3 -4 5 12 5 17 0 24 -2
18 -5z m1138 -13 c35 -11 71 -25 79 -31 12 -9 11 -9 -5 -3 -11 4 -54 17 -95
30 -41 13 -68 23 -59 23 9 1 45 -8 80 -19z m-1198 3 c-7 -2 -19 -2 -25 0 -7 3
-2 5 12 5 14 0 19 -2 13 -5z m-108 -28 c-38 -12 -79 -26 -90 -29 -20 -7 -20
-7 0 5 24 15 124 48 145 48 8 -1 -16 -11 -55 -24z m693 -242 c6 -12 16 -24 22
-26 6 -3 5 -4 -2 -3 -31 5 -48 69 -46 166 l1 95 6 -105 c4 -58 12 -115 19
-127z m830 154 c9 -10 -8 -2 -38 18 -70 47 -77 55 -22 25 23 -13 50 -32 60
-43z m-1638 48 c0 -2 -10 -9 -22 -15 -22 -11 -22 -10 -4 4 21 17 26 19 26 11z
m-50 -29 c0 -2 -8 -10 -17 -17 -16 -13 -17 -12 -4 4 13 16 21 21 21 13z m1665
-61 c23 -18 54 -52 70 -75 l29 -42 -24 -20 c-20 -16 -39 -19 -119 -18 -53 0
-152 -2 -221 -6 -142 -8 -522 6 -475 17 l30 7 -30 1 c-16 1 -35 5 -42 9 -19
12 -33 60 -33 112 l0 48 41 7 c42 7 361 -2 412 -11 27 -6 27 -6 27 -89 l0 -84
-102 -4 c-77 -2 -64 -3 47 -4 83 0 142 1 133 4 -15 4 -18 17 -18 87 l0 82 63
-4 c56 -4 64 -2 86 22 23 24 25 25 55 9 17 -8 49 -30 71 -48z m-1705 32 c0 -2
-10 -12 -22 -23 l-23 -19 19 23 c18 21 26 27 26 19z m90 -27 c18 -18 28 -20
80 -14 l60 7 0 -77 0 -76 -165 0 c-179 0 -184 2 -142 51 21 26 137 129 144
129 1 0 12 -9 23 -20z m1716 -156 c-11 -8 -27 -14 -35 -13 -11 0 -9 3 5 9 12
5 25 14 29 20 4 6 10 8 13 5 4 -4 -2 -13 -12 -21z m-93 -21 c-23 -2 -64 -2
-90 0 -26 2 -7 3 42 3 50 0 71 -1 48 -3z m-1005 -80 c-53 -2 -143 -2 -200 0
-57 1 -13 3 97 3 110 0 156 -2 103 -3z m580 0 c-75 -2 -201 -2 -280 0 -79 1
-17 3 137 3 154 0 218 -2 143 -3z m-965 -10 c-24 -2 -62 -2 -85 0 -24 2 -5 4
42 4 47 0 66 -2 43 -4z m1270 0 c-24 -2 -62 -2 -85 0 -24 2 -5 4 42 4 47 0 66
-2 43 -4z m-1446 -10 c-20 -2 -52 -2 -70 0 -17 2 0 4 38 4 39 0 53 -2 32 -4z
m1620 0 c-20 -2 -52 -2 -70 0 -17 2 0 4 38 4 39 0 53 -2 32 -4z m-1744 -10
c-13 -2 -35 -2 -50 0 -16 2 -5 4 22 4 28 0 40 -2 28 -4z m1865 0 c-10 -2 -28
-2 -40 0 -13 2 -5 4 17 4 22 1 32 -1 23 -4z m-1960 -10 c-10 -2 -26 -2 -35 0
-10 3 -2 5 17 5 19 0 27 -2 18 -5z m2060 0 c-10 -2 -26 -2 -35 0 -10 3 -2 5
17 5 19 0 27 -2 18 -5z m-2135 -10 c-7 -2 -21 -2 -30 0 -10 3 -4 5 12 5 17 0
24 -2 18 -5z m2210 0 c-7 -2 -19 -2 -25 0 -7 3 -2 5 12 5 14 0 19 -2 13 -5z
m-2280 -10 c-7 -2 -21 -2 -30 0 -10 3 -4 5 12 5 17 0 24 -2 18 -5z m2344 1
c-3 -3 -12 -4 -19 -1 -8 3 -5 6 6 6 11 1 17 -2 13 -5z m-2404 -11 c-7 -2 -19
-2 -25 0 -7 3 -2 5 12 5 14 0 19 -2 13 -5z m-46 -9 c-3 -3 -12 -4 -19 -1 -8 3
-5 6 6 6 11 1 17 -2 13 -5z m2550 0 c-3 -3 -12 -4 -19 -1 -8 3 -5 6 6 6 11 1
17 -2 13 -5z m-2600 -10 c-3 -3 -12 -4 -19 -1 -8 3 -5 6 6 6 11 1 17 -2 13 -5z
m2778 -63 c95 -25 270 -108 305 -147 21 -22 14 -20 -35 13 -183 123 -456 180
-639 132 -21 -6 -40 -8 -43 -6 -2 3 24 12 59 21 82 20 245 14 353 -13z m-2688
-2 c200 -27 326 -147 368 -349 24 -118 16 -116 -16 4 -16 60 -40 128 -54 152
-35 60 -117 129 -183 155 -79 31 -248 38 -364 14 -87 -17 -241 -84 -301 -129
-19 -14 -38 -26 -42 -26 -15 0 66 56 135 93 73 40 176 73 265 86 85 12 104 12
192 0z m2253 -19 c-8 -5 -19 -10 -25 -10 -5 0 -3 5 5 10 8 5 20 10 25 10 6 0
3 -5 -5 -10z m331 -5 c147 -25 316 -95 454 -187 64 -43 150 -121 167 -152 16
-30 27 -76 18 -76 -4 0 -10 10 -14 23 -29 116 -381 317 -636 363 -256 46 -473
-43 -540 -223 -11 -31 -30 -110 -41 -177 -20 -123 -34 -172 -51 -182 -6 -4 -5
3 1 14 6 11 15 74 21 139 12 137 18 173 31 173 5 0 9 6 9 13 0 7 16 39 35 71
19 32 28 53 20 46 -9 -7 -15 -8 -15 -2 0 15 117 101 168 124 103 46 233 58
373 33z m-2538 -20 c117 -30 212 -97 252 -175 28 -56 43 -114 55 -222 9 -76
32 -170 49 -197 5 -8 16 -11 31 -6 17 5 20 12 16 31 l-6 24 97 -7 c54 -5 385
-8 736 -8 l637 0 -6 -28 c-5 -23 -2 -27 18 -27 13 0 37 -9 53 -20 l30 -20
-817 0 c-496 0 -818 4 -818 10 0 5 7 13 15 18 14 7 13 14 -5 54 -11 26 -31
102 -45 169 -39 189 -89 275 -195 333 -137 75 -299 73 -501 -5 -170 -66 -363
-209 -409 -305 -26 -52 -34 -56 -24 -11 31 145 343 355 586 396 84 14 189 12
251 -4z m2095 -34 c-42 -27 -87 -64 -102 -83 -29 -38 -34 -57 -11 -38 21 17
19 11 -15 -51 -30 -55 -43 -53 -14 2 8 17 13 33 10 36 -6 6 -45 -69 -63 -122
-12 -36 -13 -37 -8 -7 7 49 54 138 100 190 37 43 146 122 168 122 5 0 -24 -22
-65 -49z m-2658 16 c0 -2 -15 -16 -32 -33 l-33 -29 29 33 c28 30 36 37 36 29z
m3671 -184 c13 -16 12 -17 -3 -4 -17 13 -22 21 -14 21 2 0 10 -8 17 -17z
m-3897 -48 c-20 -25 -39 -45 -42 -45 -5 0 8 17 52 68 35 40 28 23 -10 -23z
m358 -52 c-31 -32 -63 -67 -70 -78 -7 -11 -6 -6 2 10 13 27 107 125 120 125 3
0 -20 -26 -52 -57z m2678 43 c0 -2 -8 -10 -17 -17 -16 -13 -17 -12 -4 4 13 16
21 21 21 13z m475 -46 c21 -22 37 -40 34 -40 -3 0 -23 18 -44 40 -21 22 -37
40 -34 40 3 0 23 -18 44 -40z m-2780 -21 c211 -99 211 -395 0 -495 -144 -69
-326 10 -370 160 -33 110 -10 202 70 283 85 84 191 103 300 52z m2608 15 c26
-9 69 -36 96 -60 191 -172 71 -474 -188 -474 -155 0 -284 148 -268 305 8 82
46 142 129 204 54 41 154 51 231 25z m-2417 -86 c36 -72 28 -72 -10 0 -19 35
-38 69 -43 75 -4 7 0 4 11 -7 10 -12 29 -42 42 -68z m2054 79 c0 -2 -10 -12
-22 -23 l-23 -19 19 23 c18 21 26 27 26 19z m-303 -39 c-3 -8 -6 -5 -6 6 -1
11 2 17 5 13 3 -3 4 -12 1 -19z m239 -62 c-11 -30 -22 -50 -24 -46 -4 10 34
100 41 100 2 0 -5 -24 -17 -54z m-249 -3 c-3 -10 -5 -4 -5 12 0 17 2 24 5 18
2 -7 2 -21 0 -30z m-1530 -25 c-3 -7 -5 -2 -5 12 0 14 2 19 5 13 2 -7 2 -19 0
-25z m10 -50 c-3 -7 -5 -2 -5 12 0 14 2 19 5 13 2 -7 2 -19 0 -25z m1510 0
c-3 -8 -6 -5 -6 6 -1 11 2 17 5 13 3 -3 4 -12 1 -19z m230 -10 c-3 -8 -6 -5
-6 6 -1 11 2 17 5 13 3 -3 4 -12 1 -19z m-1908 -38 c0 -9 -4 -8 -9 5 -5 11 -9
27 -9 35 0 9 4 8 9 -5 5 -11 9 -27 9 -35z"/>
<path d="M3870 1027 c0 -8 92 -69 96 -64 3 3 -15 19 -40 36 -41 29 -56 36 -56
28z"/>
<path d="M854 642 c-116 -41 -176 -127 -177 -252 -2 -233 279 -346 440 -178
68 71 90 174 58 269 -22 63 -67 113 -128 143 -71 35 -130 41 -193 18z m167
-107 c43 -28 79 -96 79 -149 0 -44 -22 -96 -52 -123 -16 -14 -15 -9 6 21 29
44 36 77 11 56 -8 -6 -19 -9 -25 -5 -11 7 -47 16 -68 17 -7 1 -10 8 -7 16 4
11 -1 13 -20 8 -15 -4 -25 -2 -25 4 0 13 -65 -13 -86 -35 -9 -8 -21 -15 -29
-15 -7 0 -15 -6 -18 -12 -8 -24 -29 75 -22 110 4 21 23 52 48 79 64 67 133 76
208 28z"/>
<path d="M3487 646 c-100 -37 -157 -104 -178 -208 -17 -84 7 -157 74 -225 82
-81 186 -102 291 -58 154 65 205 275 97 406 -64 77 -197 118 -284 85z m180
-112 c55 -45 75 -88 70 -157 -2 -31 -9 -63 -16 -70 -10 -10 -11 -6 -6 18 4 18
3 25 -2 18 -7 -10 -21 -10 -65 -1 -31 7 -55 16 -52 20 3 4 0 8 -6 8 -6 0 -8 5
-5 10 16 25 -83 0 -124 -31 -13 -11 -27 -16 -32 -13 -12 7 -11 -13 2 -39 10
-21 10 -21 -6 -2 -22 28 -37 92 -30 128 26 127 176 188 272 111z m43 -248 c0
-2 -8 -10 -17 -17 -16 -13 -17 -12 -4 4 13 16 21 21 21 13z"/>
<path d="M3722 380 c0 -14 2 -19 5 -12 2 6 2 18 0 25 -3 6 -5 1 -5 -13z"/>
<path d="M6724 1639 c-149 -11 -291 -34 -361 -60 -73 -27 -122 -77 -228 -229
-87 -126 -102 -151 -62 -105 15 17 27 25 27 19 0 -6 -10 -20 -22 -32 -22 -19
-56 -23 -523 -57 -472 -34 -637 -49 -671 -62 -8 -3 -14 0 -14 6 0 6 -10 11
-22 12 -23 1 -23 1 1 8 22 6 23 7 6 21 -11 9 -42 15 -84 16 -60 1 -61 1 -9 -3
l57 -4 3 -37 c2 -27 -4 -46 -22 -71 -24 -33 -25 -44 -31 -210 -4 -97 -8 -196
-10 -221 -2 -44 -2 -44 -9 15 l-7 60 -1 -62 c-1 -35 -6 -63 -12 -63 -16 0
-138 -58 -144 -69 -4 -5 3 -9 14 -8 11 1 20 8 20 15 0 10 4 12 13 4 7 -5 21
-6 32 -1 11 4 48 8 83 8 54 1 66 -2 88 -24 19 -19 23 -31 18 -52 -3 -16 -13
-34 -22 -41 -9 -6 -12 -12 -6 -12 5 0 2 -5 -6 -10 -8 -5 -44 -10 -80 -10 -72
0 -110 18 -110 51 0 17 -3 18 -20 7 -17 -11 -22 -10 -30 2 -13 20 -13 4 0 -21
19 -34 64 -49 149 -49 72 0 82 3 112 28 31 25 38 27 113 23 45 -1 82 -4 83 -5
2 -1 7 -35 13 -75 14 -98 51 -171 122 -236 96 -89 219 -117 344 -80 108 32
212 133 254 246 l22 57 -22 42 c-12 23 -20 44 -17 46 2 2 12 -14 22 -37 39
-85 115 -119 221 -98 35 7 62 17 61 22 -1 6 53 8 138 6 256 -7 1089 -4 1168 5
47 5 83 14 93 23 13 14 14 13 8 -13 -4 -16 -8 -30 -9 -32 -2 -2 -225 -7 -497
-11 l-493 -9 530 3 c292 1 539 5 550 9 17 6 24 -2 45 -51 31 -74 107 -151 185
-188 83 -39 196 -46 275 -16 106 40 216 167 235 274 4 20 12 40 17 43 6 4 92
12 192 20 168 12 317 7 346 -11 12 -7 50 12 50 26 0 6 12 27 27 47 16 20 20
31 10 23 -27 -21 -40 -1 -36 58 4 50 3 52 -30 67 -32 15 -35 15 -47 0 -11 -15
-17 -11 -60 41 -87 105 -258 267 -354 335 -52 37 -144 95 -205 130 -129 73
-156 96 -287 245 -199 226 -332 282 -743 313 -156 11 -276 11 -441 -1z m613
-84 c216 -33 337 -88 458 -210 57 -57 92 -103 121 -160 49 -94 69 -153 26 -79
-157 277 -422 404 -872 417 -161 5 -481 -8 -589 -23 -174 -24 -234 -65 -337
-228 -37 -59 -77 -117 -87 -129 -11 -13 -18 -25 -15 -28 3 -3 38 43 78 102
168 249 214 270 624 280 166 4 247 3 243 -4 -4 -6 -103 -13 -244 -16 -395 -11
-459 -36 -582 -226 -20 -32 -53 -80 -74 -108 -20 -28 -37 -52 -37 -54 0 -2
271 -3 602 -1 1008 5 1233 -13 1448 -114 94 -45 403 -244 470 -305 l35 -31
-44 31 c-46 32 -67 39 -55 20 4 -7 -13 0 -37 15 -87 54 -266 135 -353 161
-121 35 -233 42 -315 21 -123 -32 -218 -100 -272 -196 -16 -30 -27 -44 -23
-30 12 45 72 124 121 162 134 102 286 120 497 57 70 -21 251 -107 329 -156 21
-13 41 -22 43 -20 7 7 -160 117 -273 180 -158 89 -296 132 -478 151 -189 20
-767 35 -1011 26 -142 -5 -380 -12 -527 -15 l-269 -6 7 33 c5 24 4 29 -4 18
-6 -8 -11 -23 -11 -32 0 -22 -40 -25 -520 -38 -217 -5 -443 -13 -502 -16 -94
-6 -108 -5 -108 9 0 9 4 18 9 22 5 3 209 16 453 30 520 29 688 42 726 56 38
15 78 55 118 120 37 62 45 89 14 49 -11 -14 -20 -20 -20 -14 0 6 9 19 20 29
11 10 20 14 20 10 0 -5 23 24 51 64 57 80 96 111 181 140 165 57 691 76 965
36z m3 -84 c171 -34 274 -86 337 -169 59 -77 56 -137 -7 -159 -39 -13 -649
-19 -636 -5 4 4 144 7 310 7 267 1 306 3 329 18 36 24 41 50 18 95 -65 127
-262 204 -558 219 -71 3 -123 10 -123 16 0 15 218 0 330 -22z m-429 -68 c10
-11 14 -46 14 -118 0 -86 -3 -106 -19 -123 -18 -21 -18 -21 30 -25 88 -6 -469
-7 -625 0 -174 7 -170 3 -103 101 35 52 52 69 32 33 -5 -11 -7 -27 -4 -35 4
-12 2 -15 -9 -10 -8 3 -18 0 -23 -7 -4 -8 -3 -10 5 -5 6 4 14 0 17 -8 3 -9 11
-13 18 -9 6 4 5 -1 -3 -10 -12 -15 -10 -17 23 -17 l36 0 0 100 0 100 35 17
c19 9 38 13 42 10 4 -4 14 -58 23 -120 l16 -112 -125 -5 c-69 -3 36 -6 234 -6
306 0 326 1 135 6 l-225 5 -3 35 c-2 19 -7 62 -13 95 -16 103 -14 113 24 118
17 2 127 5 243 5 186 2 213 0 225 -15z m379 -4 c183 -23 328 -88 364 -163 13
-27 14 -41 6 -56 -10 -19 -20 -20 -294 -20 -241 0 -285 2 -296 15 -15 18 -25
139 -16 190 11 56 34 60 236 34z m-330 -358 c0 -15 -28 -21 -91 -21 -58 0 -81
14 -36 23 42 8 127 7 127 -2z m209 3 c56 -12 32 -24 -36 -19 -79 6 -111 25
-41 25 25 0 60 -3 77 -6z m610 -40 c54 -11 34 -21 -44 -22 -98 -2 -101 18 -4
27 9 0 31 -2 48 -5z m-2334 -14 c4 -6 -6 -10 -22 -10 -22 0 -25 2 -13 10 19
12 27 12 35 0z m160 -53 c28 -2 -128 -3 -345 -3 -217 0 -332 3 -255 6 134 5
494 3 600 -3z m-111 -62 c86 -18 176 -60 281 -130 95 -64 253 -200 279 -241
11 -16 -14 2 -55 42 -207 197 -382 296 -578 324 -177 26 -516 -31 -606 -102
-37 -29 -42 -16 -6 15 49 41 180 81 326 100 80 10 295 6 359 -8z m2626 -50
c102 -33 197 -79 355 -175 190 -115 274 -154 377 -175 21 -4 25 -9 21 -26 -5
-18 -11 -19 -47 -13 -68 11 -133 39 -286 124 -335 187 -476 240 -630 240 -185
0 -309 -89 -361 -261 -23 -75 -39 -82 -39 -16 0 57 56 173 109 226 46 46 123
88 185 101 74 16 223 4 316 -25z m-2579 -19 c89 -25 166 -63 269 -131 99 -65
240 -191 240 -213 0 -6 -36 16 -79 50 -160 127 -342 219 -479 244 -100 17
-224 17 -342 -1 -175 -26 -239 -56 -266 -122 -17 -39 -20 -40 -34 -13 -15 28
2 79 38 113 43 41 124 66 297 91 63 9 301 -3 356 -18z m456 -62 c-3 -3 -12 -4
-19 -1 -8 3 -5 6 6 6 11 1 17 -2 13 -5z m0 -20 c-3 -3 -12 -4 -19 -1 -8 3 -5
6 6 6 11 1 17 -2 13 -5z m1551 -59 c-18 -35 -34 -63 -36 -61 -4 5 56 126 63
126 3 0 -10 -29 -27 -65z m-1902 -27 l29 -33 -32 29 c-18 17 -33 31 -33 33 0
8 8 1 36 -29z m-446 9 c0 -2 -17 -19 -37 -38 l-38 -34 34 38 c33 34 41 42 41
34z m490 -67 c6 -11 8 -20 6 -20 -3 0 -10 9 -16 20 -6 11 -8 20 -6 20 3 0 10
-9 16 -20z m-589 -20 c-13 -11 -28 -20 -35 -20 -6 0 3 9 19 19 39 25 46 25 16
1z m2644 -52 c-54 -100 -38 -213 41 -292 88 -88 204 -95 294 -18 83 71 115
200 70 287 -11 22 -20 40 -20 42 0 1 16 -7 35 -18 40 -24 50 -49 49 -134 -1
-84 -33 -153 -99 -213 -58 -54 -107 -72 -186 -72 -70 1 -127 27 -183 85 -72
74 -106 201 -76 281 11 28 74 94 90 94 5 0 -2 -19 -15 -42z m-2702 25 c-7 -2
-21 -2 -30 0 -10 3 -4 5 12 5 17 0 24 -2 18 -5z m154 -35 c-30 -59 -31 -166 0
-224 94 -177 314 -177 406 1 32 62 30 157 -5 217 -19 31 -23 46 -14 44 23 -3
46 -27 68 -70 17 -32 20 -53 16 -110 -11 -160 -121 -269 -272 -268 -81 0 -141
27 -196 89 -92 105 -106 262 -28 335 43 40 51 35 25 -14z m279 23 c58 -27 87
-71 90 -140 l3 -56 -7 51 c-8 56 -30 96 -67 120 -33 22 -83 31 -120 23 -24 -5
-20 -6 21 -7 95 -1 154 -55 154 -140 0 -24 -4 -41 -9 -37 -5 3 -12 -3 -14 -12
-3 -11 -6 -6 -7 12 l-2 30 -8 -30 -8 -30 -1 30 -2 30 -14 -30 c-11 -25 -14
-26 -16 -10 -1 12 -5 6 -9 -15 -7 -32 -7 -33 -9 -7 0 16 -5 26 -11 22 -5 -3
-7 -13 -4 -23 2 -9 -2 -3 -10 13 l-15 30 -2 -30 -2 -30 -4 28 c-4 28 -23 38
-23 12 0 -8 -5 -15 -11 -15 -5 0 -8 4 -4 9 3 5 1 12 -5 16 -6 4 -10 -6 -11
-22 0 -15 -3 -21 -6 -13 -2 8 -7 22 -9 30 -5 13 -6 13 -14 0 -9 -13 -10 -13
-11 0 0 10 -3 8 -9 -5 -5 -11 -9 -14 -9 -7 -1 6 -7 12 -15 12 -8 0 -19 12 -25
28 -10 24 -10 22 -6 -18 4 -32 2 -39 -4 -25 -36 77 15 178 106 210 52 19 81
18 129 -4z m2544 -3 c62 -32 90 -77 88 -142 l-1 -51 -7 50 -7 50 -1 -48 c-1
-29 -6 -46 -12 -42 -6 3 -11 -6 -11 -22 -2 -22 -3 -20 -9 12 -4 24 -8 31 -9
16 -1 -20 -3 -21 -16 -11 -12 10 -15 9 -16 -6 -1 -14 -3 -13 -9 6 -8 25 -8 25
-10 -5 -1 -18 -4 -23 -7 -13 -4 15 -8 16 -25 7 -13 -7 -18 -7 -14 -1 3 6 2 13
-3 16 -5 4 -14 -6 -19 -21 l-10 -28 -2 30 -1 30 -11 -25 -11 -25 -7 35 -7 35
-3 -35 -3 -35 -5 30 -5 30 -7 -25 c-8 -24 -8 -24 -9 -2 -1 24 -21 31 -21 7 0
-20 -26 -19 -34 1 -3 9 -7 30 -8 47 -1 27 -2 25 -9 -13 -7 -45 -7 -45 -5 11 5
127 129 196 246 137z m-2276 -68 c5 -17 4 -20 -2 -10 -5 8 -13 26 -16 40 -5
17 -4 20 2 10 5 -8 13 -26 16 -40z m1733 -27 c-2 -16 -4 -5 -4 22 0 28 2 40 4
28 2 -13 2 -35 0 -50z m767 38 c-2 -3 -12 3 -22 13 -16 17 -16 18 5 5 12 -7
20 -15 17 -18z m-794 -105 c0 -23 -205 -31 -740 -30 -484 1 -620 7 -620 26 0
6 59 7 178 2 233 -10 893 -8 1007 4 141 14 175 14 175 -2z m-1914 -94 c-17
-16 -18 -16 -5 5 7 12 15 20 18 17 3 -2 -3 -12 -13 -22z m2284 -4 c15 -21 17
-28 6 -19 -16 13 -41 51 -33 51 2 0 14 -15 27 -32z m-2397 -65 c-7 -2 -21 -2
-30 0 -10 3 -4 5 12 5 17 0 24 -2 18 -5z"/>
<path d="M5309 493 c-13 -17 -13 -17 6 -3 11 8 22 16 24 17 2 2 0 3 -6 3 -6 0
-17 -8 -24 -17z"/>
<path d="M7874 511 c-40 -18 -84 -63 -84 -85 0 -6 9 3 20 21 21 35 59 58 117
72 28 7 31 9 13 10 -14 0 -43 -8 -66 -18z"/>
<path d="M7985 510 c27 -12 43 -12 25 0 -8 5 -22 9 -30 9 -10 0 -8 -3 5 -9z"/>
<path d="M4888 1183 c7 -3 16 -2 19 1 4 3 -2 6 -13 5 -11 0 -14 -3 -6 -6z"/>
<path d="M6128 283 c23 -2 61 -2 85 0 23 2 4 4 -43 4 -47 0 -66 -2 -42 -4z"/>
</g>
</svg>
