<?xml version="1.0" standalone="no"?>
<!DOCTYPE svg PUBLIC "-//W3C//DTD SVG 20010904//EN"
 "http://www.w3.org/TR/2001/REC-SVG-20010904/DTD/svg10.dtd">
<svg version="1.0" xmlns="http://www.w3.org/2000/svg"
 width="100.000000pt" height="71.000000pt" viewBox="0 0 100.000000 71.000000"
 preserveAspectRatio="xMidYMid meet">
<metadata>
Created by potrace 1.16, written by Peter Selinger 2001-2019
</metadata>
<g transform="translate(0.000000,71.000000) scale(0.100000,-0.100000)"
fill="#000000" stroke="none">
<path d="M749 671 c-20 -20 -29 -39 -29 -61 0 -22 9 -41 29 -61 25 -24 37 -29
78 -29 56 1 77 14 97 61 l14 34 7 -27 c4 -15 2 -43 -5 -63 -28 -84 -146 -102
-260 -40 -202 109 -268 130 -385 123 -121 -8 -200 -63 -254 -178 -23 -49 -26
-67 -26 -165 0 -98 3 -116 25 -160 48 -94 156 -121 222 -55 50 50 32 127 -37
156 -48 20 -94 4 -117 -40 -9 -19 -8 -19 12 2 30 32 79 27 99 -10 22 -38 5
-99 -31 -112 -62 -22 -128 43 -128 127 0 79 69 137 163 137 34 0 74 -15 175
-64 153 -76 215 -96 293 -96 134 0 244 82 287 214 26 79 27 115 7 184 -38 128
-165 194 -236 123z m141 -21 c24 -24 27 -82 5 -100 -21 -17 -60 -16 -90 4 -19
12 -25 25 -25 51 0 58 68 87 110 45z m-523 -134 c22 -8 81 -37 131 -65 117
-66 189 -91 267 -91 76 0 159 38 192 89 17 25 23 29 23 15 -1 -33 -36 -100
-72 -136 -57 -56 -102 -73 -193 -73 -77 0 -85 3 -218 63 -164 75 -231 91 -313
73 -48 -11 -66 -22 -111 -67 l-54 -54 7 38 c22 124 131 222 245 222 31 0 74
-6 96 -14z"/>
<path d="M391 157 c-1 -18 8 -37 25 -52 28 -26 50 -31 72 -16 10 6 1 15 -33
31 -26 12 -50 32 -55 44 -8 19 -9 19 -9 -7z"/>
<path d="M550 81 c0 -5 -18 -16 -40 -25 -29 -12 -46 -13 -66 -6 -29 11 -44 6
-44 -15 0 -21 37 -37 70 -30 36 8 124 84 98 85 -10 0 -18 -4 -18 -9z"/>
</g>
</svg>
