<?xml version="1.0" standalone="no"?>
<!DOCTYPE svg PUBLIC "-//W3C//DTD SVG 20010904//EN"
 "http://www.w3.org/TR/2001/REC-SVG-20010904/DTD/svg10.dtd">
<svg version="1.0" xmlns="http://www.w3.org/2000/svg"
 width="280.000000pt" height="942.000000pt" viewBox="0 0 280.000000 942.000000"
 preserveAspectRatio="xMidYMid meet">
<metadata>
Created by potrace 1.16, written by Peter Selinger 2001-2019
</metadata>
<g transform="translate(0.000000,942.000000) scale(0.100000,-0.100000)"
fill="#000000" stroke="none">
<path d="M1245 9366 c-203 -80 -409 -192 -555 -303 -25 -18 -82 -71 -128 -116
-94 -92 -94 -92 -128 2 -9 25 -19 53 -23 61 -3 8 -7 -29 -9 -82 -2 -87 0 -103
23 -151 27 -57 31 -105 15 -175 -7 -27 -7 -49 -1 -60 11 -20 8 -28 47 102 27
88 27 91 12 150 -9 34 -15 61 -15 62 1 0 36 27 77 61 123 99 211 152 360 218
92 40 401 147 408 140 2 -2 -1 -131 -7 -287 -6 -156 -14 -444 -17 -640 -6
-346 -7 -357 -25 -347 -16 8 -19 6 -19 -16 0 -14 -4 -25 -10 -25 -12 0 -12 2
0 36 6 15 8 35 5 45 -6 17 -7 17 -39 -2 l-33 -19 -71 25 c-105 38 -176 71
-191 89 -10 12 -12 35 -8 91 7 83 20 56 -129 269 l-69 99 -5 -171 -5 -172 -75
64 c-102 86 -200 205 -225 274 -12 33 -14 34 -14 11 -1 -14 12 -50 28 -80 27
-52 28 -58 22 -148 l-6 -95 -26 35 c-14 19 -36 53 -48 77 -27 53 -34 54 -16 3
19 -56 34 -81 66 -119 27 -31 29 -38 29 -124 l0 -91 -25 23 c-14 13 -43 51
-65 85 -33 51 -40 71 -41 116 -1 30 -4 41 -6 26 -3 -21 -9 -27 -20 -23 -12 5
-13 2 -8 -11 12 -28 18 -240 7 -259 -8 -14 -13 -10 -35 27 -29 50 -46 112 -48
179 l-1 45 -10 -45 c-5 -25 -7 -90 -5 -145 3 -80 9 -113 31 -165 15 -36 29
-69 31 -75 3 -5 -15 -22 -40 -37 l-44 -26 -11 31 c-6 18 -14 68 -18 112 l-6
80 -8 -55 c-4 -32 -2 -85 5 -125 6 -38 10 -101 8 -138 -2 -70 8 -97 36 -97 9
0 51 -34 95 -75 184 -173 423 -289 911 -440 64 -20 115 -41 112 -45 -3 -5 -61
-27 -130 -50 l-125 -42 0 -279 c0 -273 0 -279 -19 -269 -59 31 -158 -20 -176
-91 -5 -21 -1 -31 22 -49 36 -28 88 -23 145 15 31 20 253 105 275 105 2 0 3
-33 3 -73 l0 -73 -112 -38 c-182 -62 -359 -129 -355 -133 3 -2 41 10 86 27 46
16 142 48 215 70 73 22 141 42 150 46 12 5 16 0 16 -23 0 -28 -3 -30 -127 -72
-199 -67 -324 -113 -320 -117 2 -2 102 30 223 71 120 41 220 75 222 75 1 0 2
-13 2 -28 0 -27 -5 -30 -80 -57 -45 -15 -79 -29 -77 -31 2 -2 37 7 77 21 40
14 75 23 78 20 11 -10 -9 -33 -35 -39 -15 -4 -112 -39 -215 -77 -159 -59 -191
-68 -209 -58 -13 7 -18 14 -11 18 6 3 -7 6 -28 6 -55 0 -71 19 -34 39 37 19
24 20 -21 2 -31 -13 -39 -13 -70 0 -19 8 -35 19 -35 24 0 6 -8 10 -19 10 -10
0 -30 9 -44 20 -14 11 -28 20 -32 20 -3 0 -23 12 -43 27 -20 15 -39 28 -41 30
-2 1 7 12 20 23 22 20 22 20 2 11 -12 -6 -24 -11 -27 -11 -3 0 -6 106 -6 235
l0 234 100 31 c55 17 118 37 140 45 l40 14 0 -213 0 -212 -60 -29 c-68 -33
-76 -46 -9 -15 54 24 71 25 68 3 -1 -10 -1 -26 0 -36 1 -17 3 -17 16 -3 9 8
43 25 76 37 102 37 88 55 -16 19 -70 -24 -65 -24 -65 -2 0 11 14 25 33 35 l32
16 -33 -6 -33 -6 2 241 c2 133 0 244 -3 247 -4 5 -285 -78 -294 -87 -2 -2 -4
-137 -6 -300 -3 -276 -2 -297 15 -302 25 -6 21 -19 -10 -33 -25 -12 -29 -10
-71 32 -36 38 -43 51 -40 75 4 28 3 29 -13 14 -18 -16 -34 -58 -18 -48 5 3 12
-3 16 -13 3 -10 13 -26 21 -35 13 -15 12 -20 -8 -45 -12 -15 -24 -28 -28 -28
-3 0 -11 16 -19 35 -12 33 -13 33 -8 5 12 -67 49 -147 87 -188 30 -32 35 -35
21 -12 -60 95 -48 129 30 88 39 -21 91 -25 75 -6 -6 7 -7 20 -4 30 4 10 -3 26
-19 44 l-27 27 22 20 c20 18 24 19 37 6 8 -8 19 -14 25 -14 5 0 7 -7 4 -16 -5
-12 -2 -15 10 -10 8 3 30 -4 47 -17 18 -12 39 -23 47 -25 8 -1 36 -12 62 -22
26 -11 54 -20 62 -20 26 0 18 -20 -15 -38 -52 -29 -67 -44 -21 -22 68 33 88
39 102 30 9 -6 -23 -26 -101 -65 -142 -72 -207 -113 -272 -173 -58 -54 -122
-148 -139 -204 -13 -44 -21 -47 -42 -16 -9 12 -22 23 -31 24 -20 3 -5 -25 39
-74 19 -21 36 -46 40 -58 5 -17 0 -21 -36 -30 -60 -13 -78 -46 -53 -97 25 -54
68 -80 136 -85 l56 -4 -1 -39 c0 -31 -4 -38 -16 -32 -8 4 -41 9 -72 11 -53 3
-60 1 -88 -26 -39 -39 -39 -75 -1 -113 26 -25 37 -29 86 -29 49 0 60 4 86 29
29 29 29 30 29 150 0 67 3 121 6 121 4 0 32 -16 63 -34 31 -19 96 -54 144 -77
79 -38 86 -43 81 -65 -11 -42 4 -74 41 -90 47 -19 84 -18 129 7 l39 21 174
-64 173 -63 -2 -320 -3 -319 -70 -28 c-38 -15 -73 -27 -77 -28 -5 0 -8 129 -8
286 0 225 -3 285 -12 281 -7 -2 -75 -20 -150 -38 l-138 -34 -2 -250 c-2 -137
-3 -285 -3 -329 l0 -78 -38 -19 -37 -19 0 367 c0 241 -4 363 -10 353 -5 -8
-10 -72 -10 -142 0 -112 -2 -127 -17 -132 -10 -3 -63 -17 -118 -31 -55 -15
-115 -31 -133 -36 l-32 -11 0 -271 0 -271 -38 -40 c-35 -37 -35 -38 -6 -16 21
15 39 20 53 15 29 -9 27 -16 -15 -44 -20 -14 -54 -44 -77 -68 -43 -45 -58 -51
-75 -30 -9 10 -7 19 4 35 27 39 7 24 -27 -21 -19 -23 -26 -36 -17 -29 12 9 22
11 34 4 15 -8 12 -14 -18 -48 -42 -46 -63 -84 -48 -84 5 0 10 4 10 10 0 18 62
80 80 80 38 0 33 -24 -17 -71 -27 -26 -57 -60 -67 -75 -17 -29 -17 -29 2 -7
11 12 22 20 25 17 3 -3 8 3 12 14 3 11 24 37 46 56 32 30 43 35 59 26 31 -17
31 -26 0 -58 -40 -43 -77 -65 -91 -56 -8 5 -9 3 -4 -5 4 -7 -3 -23 -16 -39
-19 -21 -19 -23 -3 -9 11 9 28 17 38 17 9 0 15 4 12 9 -8 12 104 101 125 101
9 0 27 -8 39 -18 l23 -18 -54 -37 c-55 -37 -126 -95 -100 -81 8 4 44 29 79 55
73 55 95 64 119 50 16 -9 15 -11 -8 -19 -83 -32 -275 -190 -331 -272 -16 -25
-17 -25 -32 -5 -14 19 -15 18 -4 -12 10 -25 9 -39 -4 -70 -9 -21 -20 -49 -26
-63 -9 -24 -10 -24 -22 18 -22 71 -33 34 -21 -68 11 -88 30 -142 71 -200 l18
-25 -46 -1 c-36 -1 -50 -6 -69 -28 -31 -36 -29 -59 8 -90 40 -34 123 -37 162
-6 14 11 27 20 30 20 3 0 29 -16 58 -36 83 -55 236 -125 439 -199 102 -37 228
-86 280 -109 92 -40 95 -42 98 -77 l3 -35 -66 4 c-114 7 -210 -57 -222 -148
-19 -137 200 -179 312 -61 29 31 30 37 33 136 l4 103 46 -27 47 -27 3 -400 2
-400 -91 -44 c-50 -25 -116 -61 -146 -82 -50 -32 -53 -37 -32 -40 22 -4 21 -5
-13 -20 -53 -23 -133 -99 -116 -110 10 -6 4 -15 -20 -34 -41 -32 -69 -83 -52
-94 9 -6 8 -15 -4 -39 -24 -46 -29 -104 -17 -219 8 -85 16 -117 44 -175 84
-176 243 -299 462 -358 114 -31 297 -31 418 -1 155 39 280 112 386 228 108
119 161 251 161 404 -1 140 -62 278 -164 367 -60 52 -172 103 -256 115 -138
20 -299 -32 -394 -129 l-46 -46 0 39 c0 39 0 40 68 68 116 49 413 205 498 262
124 81 231 172 315 265 77 85 159 194 159 212 0 5 14 33 31 61 18 28 43 80 57
116 25 65 26 73 22 270 0 14 2 66 6 115 5 69 2 105 -11 155 -16 61 -148 374
-166 394 -5 6 -9 -64 -9 -158 l0 -169 -53 50 c-28 27 -65 58 -80 68 -20 12
-25 21 -18 28 18 18 13 48 -40 202 -60 177 -70 260 -45 374 9 41 14 76 12 79
-6 5 -85 -31 -109 -50 -18 -13 -16 -20 33 -149 73 -187 120 -319 115 -319 -2
0 -20 11 -40 24 -68 47 -145 42 -145 -8 l0 -25 -79 39 c-108 54 -160 74 -346
135 l-160 53 -3 215 -2 215 102 37 c379 139 646 279 794 417 78 72 155 136
197 163 27 18 28 18 43 -4 20 -29 68 -28 88 1 11 16 16 46 16 105 0 66 3 84
18 95 33 25 43 47 68 145 46 180 42 291 -16 442 -39 100 -78 158 -167 250
l-73 74 4 109 4 109 -74 85 -74 85 0 -140 c0 -78 -2 -141 -4 -141 -2 0 -30 15
-62 33 l-57 32 -4 315 c-3 173 -6 317 -9 319 -2 2 -4 -138 -4 -311 l0 -315
-42 21 c-24 11 -95 41 -158 67 l-115 45 -3 98 -3 97 26 -17 c32 -21 106 -14
143 13 65 49 67 55 70 283 l3 209 52 32 c198 125 421 319 470 410 l19 34 -27
-32 c-31 -39 -43 -42 -40 -10 4 37 5 38 14 33 4 -3 18 6 31 19 13 13 26 22 30
20 13 -8 70 129 64 155 -4 19 -3 21 4 11 15 -21 27 63 26 174 -1 61 -7 108
-21 147 -19 55 -19 58 -2 63 29 9 57 65 68 135 13 80 5 140 -18 140 -29 0 -72
-54 -96 -121 -22 -61 -23 -62 -35 -38 -64 118 -280 274 -485 348 l-60 22 -1
72 c-1 76 -20 133 -113 327 l-40 85 -1 -217 c0 -120 -4 -218 -8 -218 -5 0 -34
5 -65 11 l-57 12 0 396 c0 392 0 397 -22 441 -44 84 -118 110 -198 68 -43 -24
-110 -97 -110 -121 0 -7 9 2 19 18 68 109 169 139 241 70 89 -85 42 -272 -82
-336 -81 -42 -170 -6 -191 76 -2 11 -5 -103 -6 -252 -1 -289 1 -280 -48 -267
l-23 6 0 267 c0 551 -13 1181 -24 1181 -6 0 -61 -20 -121 -44z m-426 -991 c70
-98 71 -100 71 -162 0 -35 -4 -63 -8 -63 -4 0 -39 19 -77 43 l-70 43 -3 129
c-2 78 1 126 6 120 5 -6 42 -55 81 -110z m977 -502 c-4 -5 -52 5 -238 48 l-88
21 0 245 0 245 25 -30 c70 -83 199 -63 273 42 l27 39 3 -303 c1 -167 0 -305
-2 -307z m-1107 362 c19 -6 21 -14 21 -96 l0 -90 -47 32 c-69 47 -201 158
-207 176 -7 19 -8 141 0 168 4 17 21 5 108 -81 57 -56 113 -105 125 -109z
m-40 -181 l60 -39 3 -80 c2 -44 2 -81 2 -83 -4 -6 -143 84 -203 130 l-61 48 0
96 0 96 70 -65 c39 -36 97 -82 129 -103z m165 100 c70 -42 76 -48 76 -79 0
-33 -1 -33 -38 -28 -25 3 -50 -1 -71 -11 -17 -9 -36 -14 -41 -11 -9 6 -15 175
-6 175 2 0 38 -21 80 -46z m-397 -131 c21 -14 23 -22 23 -112 l0 -96 -62 63
-63 62 -2 110 -1 110 41 -61 c23 -34 52 -68 64 -76z m-149 -63 c23 -36 31
-123 13 -135 -17 -10 -70 116 -76 180 -3 33 -8 69 -10 80 -3 11 7 -5 23 -35
16 -30 38 -71 50 -90z m920 -49 c2 -39 0 -71 -2 -71 -10 0 -219 81 -245 94
-22 12 -25 19 -26 88 l-1 74 135 -57 136 -56 3 -72z m878 -42 c9 -33 14 -63
11 -65 -3 -3 -25 0 -51 7 l-46 11 1 127 1 126 34 -72 c19 -40 41 -100 50 -134z
m-1469 13 c51 -33 98 -62 104 -64 7 -2 15 -24 19 -49 7 -38 8 -40 9 -11 0 17
5 32 10 32 4 0 48 -19 97 -41 49 -23 150 -64 224 -91 74 -27 137 -54 138 -59
2 -5 7 -7 11 -4 4 2 24 0 44 -6 l37 -10 0 -79 0 -78 -40 15 c-22 9 -40 19 -40
24 0 4 -8 5 -18 2 -33 -8 -294 88 -457 169 -101 51 -264 151 -277 172 -4 6 -8
51 -8 100 l0 90 28 -26 c15 -14 68 -53 119 -86z m691 62 c16 -5 17 -134 1
-134 -7 0 -30 5 -51 12 -39 11 -40 13 -33 47 4 20 9 47 10 61 2 14 4 26 4 28
1 2 44 -6 69 -14z m164 -33 c4 -3 9 -37 11 -76 l3 -70 2 71 2 71 143 -33 c78
-19 152 -36 165 -39 20 -5 22 -11 22 -80 0 -65 -2 -75 -17 -74 -10 0 -101 22
-203 47 l-185 47 -3 78 -3 78 28 -7 c15 -4 31 -9 35 -13z m-486 -29 c38 -16
106 -41 152 -57 73 -25 82 -31 83 -54 2 -24 2 -24 6 -3 5 26 12 27 58 8 32
-14 35 -18 35 -59 0 -25 -3 -58 -6 -74 l-6 -30 -121 42 c-161 56 -266 98 -357
144 -69 34 -75 40 -78 70 -3 29 -1 33 15 27 38 -15 79 -16 103 -2 35 20 39 19
116 -12z m-525 -157 l2 -60 6 52 6 52 75 -50 c135 -90 437 -225 628 -280 26
-8 42 -18 42 -28 0 -11 3 -13 8 -4 6 10 16 10 45 1 l37 -11 0 -79 c0 -43 -4
-78 -9 -78 -18 0 -306 98 -411 140 -207 82 -390 189 -502 293 l-48 44 0 87 0
87 60 -53 c59 -53 60 -53 61 -113z m1492 75 c9 0 10 -160 0 -160 -4 0 -33 7
-65 16 l-58 17 0 77 0 78 58 -14 c31 -7 60 -13 65 -14z m166 -49 c176 -59 311
-139 422 -250 135 -136 209 -318 195 -484 -4 -45 -8 -95 -8 -110 0 -17 -4 -24
-8 -17 -4 7 -24 -22 -48 -73 -38 -80 -62 -113 -62 -87 0 7 12 35 27 64 85 165
78 140 61 226 -12 65 -12 81 -1 96 7 10 13 23 12 28 0 6 -5 1 -11 -11 -6 -13
-14 -23 -18 -23 -4 0 -17 24 -30 53 -66 144 -220 278 -433 376 -79 37 -84 41
-103 87 l-19 49 -5 -41 -5 -40 -42 18 -43 19 0 80 c0 67 3 80 14 76 8 -3 55
-20 105 -36z m-661 -17 c15 -4 22 -14 23 -33 2 -25 2 -25 6 -3 4 19 9 23 26
18 12 -3 86 -20 164 -38 l143 -33 1 -30 2 -30 4 28 c3 21 9 27 21 23 9 -3 38
-10 65 -17 l47 -11 0 -59 0 -58 -27 15 c-37 19 -61 18 -102 -4 -33 -18 -34
-18 -219 30 -101 27 -189 51 -193 54 -5 3 -9 39 -9 80 0 77 2 80 48 68z
m-1078 -88 c139 -136 405 -266 787 -386 l143 -45 0 -72 c0 -40 -4 -73 -10 -73
-5 0 -87 25 -182 56 -414 134 -632 243 -796 399 l-66 62 32 37 c18 20 32 43
32 51 0 24 11 18 60 -29z m1698 -82 c20 -13 22 -22 22 -95 0 -89 4 -86 -72
-57 -28 10 -28 12 -28 95 l0 85 28 -7 c15 -3 37 -13 50 -21z m-480 -56 c159
-40 172 -45 166 -63 -16 -50 -16 -106 1 -132 17 -25 17 -26 -1 -19 -11 4 -54
17 -97 28 l-77 21 6 34 c8 43 -17 83 -51 83 -26 0 -51 -33 -46 -62 2 -14 -5
-18 -28 -18 -58 0 -61 5 -61 91 0 43 3 79 8 79 4 0 85 -19 180 -42z m615 4
c63 -29 178 -103 239 -155 66 -56 132 -145 175 -235 l34 -73 -26 -44 c-14 -25
-30 -45 -35 -45 -4 0 -14 17 -20 38 -7 20 -16 41 -20 45 -4 5 4 29 17 53 14
25 23 47 21 50 -3 2 -13 -14 -23 -36 -10 -22 -23 -40 -29 -40 -17 1 -68 78
-56 85 5 3 10 11 10 18 0 6 -6 3 -13 -8 -13 -17 -17 -15 -63 29 -27 26 -81 66
-121 89 -71 41 -72 43 -97 112 -13 39 -31 87 -41 109 -9 21 -12 36 -8 34 4 -2
30 -14 56 -26z m-49 -102 c21 -54 20 -60 -9 -47 -20 10 -25 19 -25 50 0 48 14
47 34 -3z m-620 4 c24 -9 20 -44 -4 -44 -15 0 -20 7 -20 25 0 27 1 28 24 19z
m516 -40 c40 -16 40 -16 40 -70 0 -53 -1 -54 -21 -43 -24 12 -79 8 -124 -11
-24 -9 -36 -9 -60 0 l-30 12 30 10 c38 13 80 52 95 89 14 34 17 34 70 13z
m-567 -24 c4 0 7 -38 7 -84 l0 -85 -42 13 -43 12 -3 81 -3 81 38 -9 c21 -5 41
-9 46 -9z m40 -40 c-2 -55 -23 -61 -23 -6 0 34 4 46 13 43 7 -2 11 -18 10 -37z
m658 -1 c33 -26 39 -37 41 -72 l1 -42 6 48 6 48 70 -49 c39 -27 87 -68 108
-91 l38 -42 -26 -46 c-14 -25 -23 -48 -21 -50 3 -3 16 16 29 43 l24 47 26 -38
c14 -21 23 -43 20 -49 -33 -57 -55 -86 -63 -86 -6 0 -10 5 -10 10 0 6 -11 27
-23 48 -13 20 -36 73 -51 118 -15 45 -33 90 -41 100 -13 17 -14 10 -8 -58 5
-63 3 -78 -8 -78 -8 0 -50 21 -94 48 l-80 47 -2 88 c-1 54 3 87 9 87 6 0 28
-14 49 -31z m-409 -40 c79 -23 144 -43 146 -44 1 -1 -4 -15 -13 -31 -8 -16
-15 -37 -15 -47 0 -58 79 -120 126 -98 26 12 29 6 18 -37 -4 -15 -10 -19 -18
-14 -21 17 -222 91 -361 133 -77 23 -144 45 -149 50 -5 4 5 37 23 75 31 66 31
67 66 61 19 -3 99 -25 177 -48z m-304 -100 c20 -8 22 -15 22 -83 l0 -74 -42
13 -43 12 -3 77 c-3 86 -8 82 66 55z m155 -50 c104 -29 259 -85 360 -128 59
-25 61 -48 10 -91 -57 -47 -72 -47 -186 -1 -56 22 -147 56 -202 74 l-100 34
-3 71 c-2 40 0 72 5 72 4 0 56 -14 116 -31z m540 -15 c18 -9 34 -18 35 -20 2
-1 -11 -17 -30 -34 l-33 -31 44 26 c40 25 45 25 72 12 29 -14 29 -14 9 -32
-11 -10 -17 -21 -15 -26 3 -4 0 -11 -6 -15 -7 -4 -9 -3 -6 3 4 6 -1 17 -10 24
-15 13 -16 11 -10 -10 4 -16 -1 -33 -15 -52 l-21 -28 -41 21 c-54 27 -53 24
-25 56 l24 27 -26 -22 c-44 -39 -66 -22 -33 25 8 12 10 22 5 22 -16 0 -13 17
5 45 19 29 34 31 77 9z m148 -81 c0 -5 3 -20 5 -34 2 -15 -6 -48 -19 -77 l-24
-51 -36 26 c-35 25 -36 26 -20 52 35 55 91 106 94 84z m234 -57 c13 -37 12
-40 -17 -80 -16 -22 -32 -40 -35 -39 -3 1 -13 16 -22 34 -17 32 -17 33 13 80
17 26 35 47 40 46 4 -2 14 -20 21 -41z m121 9 c4 -25 0 -51 -16 -93 -32 -80
-36 -81 -43 -15 -6 48 -3 65 16 101 12 23 25 42 29 42 4 0 10 -16 14 -35z
m-1215 13 l39 -11 2 -161 2 -161 3 158 c2 86 5 157 8 157 30 0 347 -122 352
-136 4 -13 -162 -112 -324 -193 -68 -34 -125 -61 -128 -61 -3 0 -5 95 -5 210
0 116 3 210 6 210 4 0 24 -5 45 -12z m892 -36 c-3 -12 -9 -22 -14 -22 -12 0
-11 7 2 32 13 25 20 19 12 -10z m41 -73 c-21 -22 -25 -32 -17 -40 9 -9 18 -4
36 17 l24 28 15 -30 c13 -28 13 -31 -26 -77 l-40 -48 -16 33 c-12 24 -13 38
-6 50 13 21 1 35 -17 20 -11 -9 -16 -7 -25 11 -11 23 -11 60 1 65 18 6 26 1
21 -13 -10 -24 2 -17 22 13 15 23 15 25 1 13 -20 -16 -22 -8 -6 22 12 21 12
21 36 -7 l24 -29 -27 -28z m-294 46 c0 -11 6 -12 25 -5 17 6 24 6 22 -1 -3
-15 74 -59 92 -53 7 2 -1 -9 -19 -26 -18 -16 -36 -30 -40 -30 -5 0 -19 -13
-32 -28 -20 -24 -28 -27 -46 -19 -36 16 -26 72 19 102 16 11 29 24 29 29 0 4
-11 1 -25 -8 -37 -24 -45 -20 -45 25 0 24 4 38 10 34 6 -3 10 -13 10 -20z
m-800 -200 c0 -183 -2 -205 -17 -215 -17 -11 -17 -11 0 -6 14 5 18 1 15 -16
-2 -17 -20 -29 -76 -51 -40 -16 -71 -31 -69 -33 3 -4 79 21 130 41 16 7 18 3
15 -21 -3 -26 -11 -32 -103 -67 -55 -21 -104 -43 -110 -48 -17 -17 -25 -9 -19
19 4 15 12 33 18 41 8 11 8 13 -1 7 -9 -5 -13 0 -13 17 0 15 9 28 23 36 l22
12 -22 -5 -23 -4 0 212 0 212 108 36 c59 20 110 37 115 37 4 1 7 -91 7 -204z
m740 135 c0 -27 -4 -50 -10 -50 -14 0 -80 33 -80 39 1 7 72 59 83 60 4 1 7
-21 7 -49z m548 -5 c1 -26 -6 -44 -31 -72 l-32 -36 -5 34 c-5 27 0 43 23 77
32 48 43 48 45 -3z m-319 -29 c10 -11 2 -22 -36 -53 -26 -21 -51 -42 -54 -46
-9 -12 -39 3 -39 19 0 8 5 14 10 14 6 0 10 7 10 16 0 8 3 13 8 10 4 -2 23 9
42 25 40 33 44 34 59 15z m-390 -88 c-142 -75 -443 -218 -459 -218 -6 0 -10
10 -10 23 0 19 22 34 151 97 83 41 192 100 242 131 l92 57 39 -20 39 -20 -94
-50z m610 9 c1 -11 -4 -16 -11 -12 -7 4 -4 -1 6 -9 19 -16 19 -17 -14 -51 -41
-43 -54 -44 -48 -6 2 17 1 28 -4 25 -9 -6 -11 27 -2 50 3 9 10 13 15 10 8 -5
13 10 10 29 -1 5 3 6 8 3 5 -4 13 -1 17 6 8 13 22 -14 23 -45z m114 25 c-4 -9
-24 -44 -45 -77 l-38 -60 0 42 c0 34 7 49 36 82 36 40 59 46 47 13z m-303 -6
c0 -8 -4 -17 -9 -20 -5 -3 -11 -15 -14 -27 -6 -20 -5 -20 16 -2 12 10 25 22
28 27 4 5 15 -6 24 -24 9 -18 13 -30 7 -27 -5 4 -26 -11 -46 -32 l-38 -38 -25
25 c-14 14 -26 32 -28 41 -1 9 -8 15 -15 13 -19 -4 -7 29 17 45 16 11 23 11
29 2 5 -8 3 -10 -7 -4 -8 5 -11 5 -7 0 4 -4 3 -14 -3 -22 -7 -8 -8 -13 -1 -13
5 0 17 12 27 26 9 15 12 23 6 20 -12 -8 -15 6 -4 17 12 13 43 7 43 -7z m-264
-11 c4 -8 1 -21 -5 -28 -24 -30 -517 -263 -597 -283 -23 -6 -25 -4 -22 22 3
25 12 32 93 66 50 21 178 82 285 136 199 101 236 114 246 87z m72 -38 c16 -19
8 -52 -14 -55 -17 -2 -20 2 -16 33 4 37 13 43 30 22z m-85 -78 c-10 -11 -40
-22 -68 -25 -75 -10 -140 -46 -151 -84 -8 -28 -20 -35 -119 -76 -170 -69 -186
-76 -182 -80 4 -4 99 32 220 83 64 27 76 24 80 -21 2 -27 -2 -30 -93 -61 -52
-18 -133 -49 -180 -69 -120 -51 -119 -51 -118 38 l0 75 66 20 c95 29 339 137
457 203 91 50 100 54 103 35 2 -11 -5 -28 -15 -38z m112 51 c-3 -5 -1 -10 5
-10 6 0 8 -5 4 -12 -4 -7 -3 -8 4 -4 20 12 53 16 47 5 -4 -5 -12 -6 -18 -2 -9
5 -9 3 0 -8 9 -11 7 -19 -8 -38 -10 -13 -19 -20 -19 -17 0 4 -13 0 -30 -9 -16
-8 -33 -15 -38 -15 -17 0 1 55 24 73 13 10 23 21 23 25 -2 12 1 22 7 22 3 0 2
-4 -1 -10z m248 -37 c4 -20 -3 -35 -31 -65 -41 -44 -48 -46 -55 -17 -3 12 -10
18 -16 14 -6 -3 -11 -2 -11 2 0 5 9 14 20 21 12 7 18 18 14 24 -4 6 -3 8 3 5
6 -4 21 5 33 18 30 32 36 31 43 -2z m117 4 c0 -15 -69 -107 -80 -107 -16 0 4
67 28 93 27 29 52 36 52 14z m80 8 c0 -15 -32 -63 -58 -89 l-30 -28 12 36 c7
20 23 47 36 61 22 23 40 32 40 20z m-350 -60 c7 -8 9 -15 5 -15 -5 0 -1 -8 7
-17 25 -29 28 -50 10 -65 -20 -17 -108 -68 -117 -68 -15 0 29 62 65 91 51 41
41 57 -15 24 -43 -24 -44 -25 -50 -5 -10 33 -25 23 -25 -17 -1 -47 -18 -78
-56 -104 -43 -28 -45 -23 -8 17 23 23 34 45 34 65 0 30 26 69 46 69 7 0 22 9
35 20 29 23 52 25 69 5z m165 -27 c-19 -68 -39 -107 -70 -137 l-36 -33 6 32
c3 18 10 41 15 51 7 11 6 19 -1 21 -12 4 65 88 81 88 7 0 9 -9 5 -22z m79 -20
c-28 -55 -74 -97 -74 -68 0 10 78 100 87 100 2 0 -4 -15 -13 -32z m-204 -82
c0 -8 -7 -21 -15 -30 -21 -20 -125 -79 -131 -74 -12 13 14 41 69 78 68 44 77
47 77 26z m-21 -72 c-14 -17 -113 -84 -124 -84 -3 0 -5 6 -5 14 0 13 131 98
139 90 2 -2 -2 -11 -10 -20z m-169 -1 c-1 -18 -19 -33 -85 -65 -114 -57 -546
-228 -576 -228 -6 0 -9 12 -7 26 3 24 14 30 123 69 150 52 295 110 360 143 92
46 185 74 185 55z m-215 -17 l39 -14 -39 -17 c-83 -34 -411 -164 -432 -170
-21 -6 -23 -3 -23 28 0 34 2 35 51 47 55 13 148 48 274 104 44 19 82 35 85 35
3 0 23 -6 45 -13z m205 -51 c0 -20 -90 -64 -284 -140 -142 -56 -361 -135 -372
-135 -2 0 -4 6 -4 14 0 8 21 22 48 32 237 87 441 168 507 202 88 45 105 49
105 27z m6 -44 c-6 -10 -133 -64 -176 -75 -14 -4 16 13 65 38 89 44 122 55
111 37z m4 -198 l0 -128 -52 3 c-59 4 -103 -18 -142 -71 -20 -27 -21 -39 -18
-178 2 -82 1 -149 -2 -149 -3 0 -25 8 -48 17 -24 10 -124 40 -223 68 l-180 51
-3 116 -3 115 63 23 c161 59 575 237 584 251 17 29 24 -4 24 -118z m-692 -518
c0 -159 -3 -330 -7 -380 -7 -90 -7 -90 -15 -40 -13 71 -13 877 -1 895 15 22
23 -137 23 -475z m-1028 390 c0 -21 -43 -62 -48 -47 -5 15 24 62 38 62 6 0 10
-7 10 -15z m940 -154 l0 -69 -72 20 c-101 29 -120 36 -113 48 3 5 12 10 18 10
7 0 44 14 82 30 39 16 73 29 78 29 4 1 7 -30 7 -68z m-113 -72 l113 -34 0 -77
c0 -43 -4 -78 -8 -78 -38 0 -476 139 -467 149 18 18 194 79 220 77 17 -2 81
-18 142 -37z m-240 -108 c81 -26 194 -61 251 -77 l102 -28 0 -83 c0 -46 -3
-83 -7 -83 -14 0 -298 83 -316 92 -9 5 -24 23 -31 41 l-14 32 -1 -27 c-1 -16
-5 -28 -9 -28 -25 0 -286 104 -306 121 -9 8 145 87 171 88 7 1 79 -21 160 -48z
m643 -10 l135 -38 3 -77 c3 -77 3 -78 -20 -71 -38 12 -76 43 -89 74 -16 35
-29 31 -29 -10 0 -35 -3 -35 -102 -7 l-78 23 0 78 c0 75 1 77 23 72 12 -3 83
-23 157 -44z m-749 -142 l89 -32 0 -41 c0 -22 -3 -58 -6 -78 l-6 -37 -92 34
c-107 39 -150 57 -231 96 -41 20 -52 23 -35 10 34 -28 114 -66 250 -121 l115
-47 3 -77 c2 -42 0 -76 -4 -76 -36 0 -407 171 -457 211 -25 19 -27 27 -27 91
0 79 -4 73 93 138 l58 39 81 -39 c44 -22 120 -53 169 -71z m974 72 l50 -18 3
-81 c2 -51 -1 -82 -7 -82 -6 0 -35 11 -66 24 l-55 25 0 75 c0 85 -2 84 75 57z
m655 -213 l0 -77 -60 41 -60 42 0 99 0 100 60 -64 59 -64 1 -77z m-428 126
c35 -14 84 -37 111 -50 l47 -24 0 -90 0 -89 -47 27 c-44 26 -48 32 -53 72 -5
46 -30 69 -30 28 0 -50 -12 -51 -101 -14 l-84 34 -3 86 -3 86 50 -20 c27 -10
78 -31 113 -46z m-426 -32 c12 -6 24 -25 28 -42 5 -25 14 -35 46 -47 40 -16
40 -16 40 -70 0 -29 -1 -53 -2 -53 -2 1 -73 24 -158 53 l-155 52 -3 86 -3 86
93 -27 c51 -14 103 -32 114 -38z m-1206 -34 c0 -30 -1 -31 -16 -16 -9 9 -14
24 -11 32 11 27 27 17 27 -16z m710 -9 l136 -42 -28 -27 c-15 -16 -28 -38 -28
-49 0 -26 31 -58 65 -67 14 -3 25 -12 25 -20 0 -19 -7 -18 -86 12 -38 14 -89
32 -114 40 -45 13 -46 14 -82 104 -20 49 -33 90 -30 90 3 0 66 -19 142 -41z
m697 -31 c49 -20 53 -24 55 -57 l1 -36 4 33 c3 21 9 32 16 28 7 -3 47 -19 90
-37 l77 -32 0 -96 0 -96 -112 53 c-62 29 -133 63 -158 76 l-45 23 -3 82 c-3
93 -4 92 75 59z m521 -138 l3 -92 -38 22 c-80 45 -82 47 -83 135 -1 44 -1 83
-1 87 1 4 27 -8 59 -26 l57 -34 3 -92z m-1947 130 c16 -9 19 -22 19 -82 l0
-72 -30 29 c-26 25 -30 36 -30 82 0 55 6 61 41 43z m606 -77 c-2 -2 -12 -1
-21 3 -11 4 -16 18 -16 48 l0 41 20 -44 c11 -24 19 -46 17 -48z m-512 3 c55
-37 210 -112 331 -159 105 -41 124 -56 106 -84 -6 -10 -15 -10 -40 -1 -27 10
-39 9 -80 -8 l-49 -21 -123 64 c-68 34 -138 74 -157 89 -31 23 -33 29 -33 85
0 32 2 59 5 59 2 0 20 -11 40 -24z m1056 -15 c63 -22 129 -45 147 -52 22 -7
37 -22 47 -45 15 -37 40 -45 50 -15 5 18 17 14 140 -47 l135 -66 0 -42 c0 -23
3 -49 6 -58 5 -13 -2 -14 -44 -9 -27 3 -57 1 -66 -4 -12 -7 -41 3 -109 35 -98
47 -298 128 -384 157 l-53 17 0 84 c0 46 4 84 9 84 5 0 60 -18 122 -39z m874
-12 l55 -41 0 -74 c0 -73 -5 -85 -27 -63 -7 7 -29 15 -50 18 l-38 6 -3 98 c-1
53 0 97 3 97 3 0 30 -19 60 -41z m-1401 -79 c9 -72 26 -64 26 12 l0 47 128
-44 127 -43 0 -70 c0 -39 -3 -73 -6 -77 -4 -3 -79 18 -168 47 l-161 52 0 84 0
84 23 -14 c17 -12 24 -30 31 -78z m1307 -116 c-54 -61 -48 -120 14 -144 22 -8
78 11 106 36 16 14 21 10 68 -46 28 -34 58 -74 66 -90 14 -27 13 -33 -12 -85
-15 -30 -30 -55 -33 -55 -3 0 -14 14 -23 30 -48 81 -216 228 -366 321 -43 26
-52 36 -47 53 3 11 6 53 6 93 l0 72 125 -76 125 -76 -29 -33z m339 -87 c42
-88 47 -114 36 -192 -12 -80 -15 -84 -37 -45 -15 27 -18 49 -14 95 4 56 2 56
-11 -5 -6 -25 -6 -24 -24 10 -10 20 -43 64 -74 98 l-56 63 0 102 1 102 69 -73
c49 -51 82 -99 110 -155z m-1034 61 c33 -14 113 -49 176 -78 l116 -52 -14 -26
c-19 -38 -17 -69 6 -92 27 -27 98 -27 133 0 l26 20 43 -30 c24 -16 72 -56 108
-90 l65 -60 -44 -40 c-24 -22 -49 -40 -55 -40 -7 0 -30 15 -52 33 -55 47 -216
143 -371 221 -118 59 -135 70 -150 104 l-17 37 -3 -31 -4 -30 -90 35 -89 35 0
83 0 82 78 -28 c42 -16 104 -40 138 -53z m-486 -26 l145 -49 3 -71 c2 -40 0
-72 -3 -72 -3 0 -77 25 -165 57 l-160 56 0 69 c0 62 2 69 18 64 9 -3 82 -28
162 -54z m1045 -46 c136 -96 218 -178 287 -289 10 -15 18 -35 18 -43 0 -19
-61 -106 -71 -102 -5 2 -24 25 -43 53 l-36 49 27 31 28 30 -29 -27 -29 -27
-66 60 c-36 32 -91 76 -121 97 l-54 37 -4 99 c-2 78 0 96 10 90 7 -4 45 -30
83 -58z m-667 -90 l72 -28 0 -75 c0 -74 0 -75 -24 -69 -13 3 -53 19 -90 35
l-66 30 0 76 c0 69 2 75 18 67 9 -5 50 -21 90 -36z m458 -237 c41 -27 74 -51
74 -53 0 -2 -22 -18 -50 -36 -27 -18 -50 -34 -50 -37 0 -5 13 2 68 39 l42 29
40 -31 c22 -18 40 -35 40 -38 -1 -4 -27 -20 -59 -36 l-59 -29 -28 20 c-28 20
-60 39 -193 112 -35 20 -68 43 -72 51 -11 23 -69 174 -69 182 0 10 235 -118
316 -173z m759 78 c9 -79 -11 -211 -27 -182 -13 22 -15 174 -4 240 10 61 20
42 31 -58z m-110 -18 c29 -56 26 -84 -14 -135 l-20 -25 -20 47 c-12 26 -21 55
-21 66 0 16 40 98 47 98 2 0 14 -23 28 -51z m-960 -38 c-2 -2 -11 -1 -20 2
-10 4 -15 19 -14 44 l1 38 18 -40 c10 -22 17 -41 15 -44z m-159 32 l84 -36 0
-168 0 -167 -34 9 c-27 7 -48 5 -90 -9 l-56 -19 0 214 c0 117 3 213 6 213 3 0
43 -17 90 -37z m169 -88 c22 -21 25 -33 25 -102 1 -73 2 -76 15 -53 8 14 15
39 15 55 1 59 12 61 85 20 65 -36 67 -38 49 -55 -11 -10 -65 -43 -121 -73
l-103 -55 0 113 c0 62 -3 127 -6 144 -8 38 7 41 41 6z m627 -62 c-4 -21 -6
-47 -4 -58 l5 -20 8 20 c6 17 8 16 10 -10 1 -16 5 -3 8 30 l6 60 19 -28 c15
-23 16 -32 7 -55 -28 -66 -32 -66 -97 -6 l-59 55 45 39 c51 44 66 37 52 -27z
m248 -36 c0 -10 -17 -38 -37 -62 l-37 -44 -21 52 c-11 29 -18 54 -15 57 3 3
21 25 40 49 l34 44 18 -39 c10 -21 18 -47 18 -57z m101 -31 c-12 -19 -28 -39
-36 -46 -13 -11 -15 -6 -15 30 0 30 9 57 28 86 l27 44 8 -40 c7 -33 4 -47 -12
-74z m-1541 -110 l0 -204 -39 5 c-60 8 -108 -5 -146 -39 -48 -41 -48 -80 -1
-102 50 -24 77 -20 153 20 89 47 201 86 209 72 3 -5 2 -14 -3 -19 -7 -7 -342
-130 -425 -156 -15 -4 -16 18 -15 275 1 154 4 283 7 285 6 7 219 64 243 66 16
1 17 -15 17 -203z m1104 84 c25 -27 46 -52 46 -55 0 -9 -33 -41 -63 -60 -22
-14 -30 -15 -43 -4 -8 7 -13 20 -11 30 3 12 -1 17 -12 16 -18 -1 -81 41 -81
55 0 4 6 8 13 8 6 1 30 14 52 30 22 16 43 29 46 30 4 0 27 -22 53 -50z m-277
-2 c18 -13 33 -26 33 -29 0 -7 -272 -143 -307 -154 -21 -6 -23 -3 -23 29 0 35
3 37 79 76 44 21 101 53 127 70 26 16 50 30 53 30 3 0 20 -10 38 -22z m488
-76 c-4 -15 -2 -21 5 -17 17 11 11 -26 -11 -61 -25 -41 -42 -44 -38 -6 2 15
-1 34 -6 42 -44 69 -44 71 -6 106 l36 33 13 -37 c7 -20 10 -48 7 -60z m143 38
c-4 -37 -13 -61 -35 -87 -40 -51 -48 -50 -48 2 1 37 8 55 35 90 19 24 39 44
44 45 5 0 6 -23 4 -50z m-538 -32 c17 -12 30 -25 30 -28 0 -14 -456 -221 -582
-265 l-68 -24 0 30 c0 28 1 29 39 23 52 -8 144 32 168 74 12 21 60 50 197 119
100 50 182 91 184 92 2 0 16 -9 32 -21z m255 -29 c7 -21 -31 -89 -49 -89 -5 0
-17 10 -28 22 l-20 23 39 32 c45 39 50 40 58 12z m314 -53 c-19 -24 -35 -43
-37 -41 -5 4 26 76 40 92 7 9 15 10 21 4 7 -7 -1 -25 -24 -55z m-485 5 c16
-18 15 -20 -26 -44 -64 -37 -202 -105 -293 -144 -69 -30 -370 -143 -381 -143
-2 0 -4 13 -4 29 0 18 6 31 18 36 9 3 60 22 112 42 103 38 314 132 450 199 47
24 90 43 96 43 6 1 19 -7 28 -18z m432 -24 c-7 -21 -30 -56 -51 -77 -41 -41
-64 -53 -45 -22 37 60 101 144 107 139 1 -2 -4 -20 -11 -40z m-221 13 c7 -22
-41 -99 -61 -100 -25 0 -20 39 10 78 35 47 42 50 51 22z m122 -18 c-2 -20 -10
-49 -18 -62 -7 -14 -13 -27 -12 -30 1 -3 -6 -6 -16 -7 -28 -2 -19 58 15 101
16 20 30 36 31 36 2 0 1 -17 0 -38z m193 -12 c0 -37 -2 -40 -29 -40 -15 0 -41
-10 -56 -22 -18 -14 -25 -16 -19 -6 13 23 88 106 97 107 4 1 7 -17 7 -39z
m-479 -59 c-80 -61 -386 -202 -664 -306 l-88 -33 3 36 c3 33 6 36 63 57 33 12
69 25 80 30 11 4 90 35 175 68 155 61 372 165 400 193 13 12 17 11 35 -6 l20
-21 -24 -18z m-1431 -134 l0 -183 -97 -46 c-54 -25 -117 -58 -140 -73 l-43
-26 0 219 0 219 123 36 c67 19 130 35 140 36 16 1 17 -14 17 -182z m1607 111
c-4 -45 -47 -141 -69 -154 -8 -5 -6 2 4 17 11 18 15 39 12 71 -4 38 -1 50 21
77 15 17 29 31 32 31 2 0 3 -19 0 -42z m-123 -5 c9 -22 -9 -35 -149 -117 -180
-105 -324 -169 -567 -255 l-88 -30 0 28 c0 28 5 31 143 81 265 98 464 191 592
277 57 38 61 39 69 16z m16 -69 c0 -9 -8 -23 -17 -31 -53 -42 -194 -129 -280
-173 -89 -45 -488 -200 -514 -200 -6 0 -9 10 -7 22 3 18 36 33 213 100 225 84
357 147 500 238 50 32 93 59 98 59 4 1 7 -6 7 -15z m-942 -51 c-3 -25 -15 -31
-178 -93 -96 -37 -195 -77 -219 -88 -25 -12 -46 -22 -48 -22 -2 0 -3 15 -3 33
0 32 2 34 77 63 265 101 349 132 361 133 9 1 12 -8 10 -26z m952 7 c0 -28
-149 -134 -302 -215 -26 -13 -34 -22 -25 -28 8 -6 6 -7 -6 -3 -10 3 -45 -6
-79 -20 -84 -35 -410 -145 -416 -140 -11 12 15 27 91 52 324 107 611 247 696
338 25 27 41 33 41 16z m-31 -76 c-32 -35 -150 -111 -216 -140 -83 -37 -77
-28 12 16 44 22 112 64 150 94 79 62 89 67 54 30z m-919 -18 c0 -48 -26 -64
-225 -131 -77 -26 -206 -73 -286 -106 -81 -32 -153 -59 -162 -59 -8 0 -30 6
-48 14 l-34 14 29 12 c17 6 59 24 95 39 86 38 329 130 459 175 57 20 111 40
120 46 25 14 52 12 52 -4z m-460 -92 c0 -19 -8 -28 -35 -40 -47 -19 -55 -18
-55 9 0 15 12 28 38 43 43 24 52 22 52 -12z m457 -31 l-2 -38 -155 -51 c-190
-62 -571 -212 -586 -230 -6 -8 -15 -14 -20 -14 -5 0 -33 -16 -62 -35 -50 -34
-53 -35 -77 -19 -25 16 -25 17 -8 37 17 19 15 19 -14 -2 l-32 -22 -7 26 c-7
28 14 60 47 70 10 4 18 11 16 17 -1 6 5 12 14 13 9 2 34 15 57 30 l41 27 51
-29 51 -28 23 28 c19 24 60 41 222 97 110 37 251 88 314 113 63 25 118 46 122
46 4 1 6 -16 5 -36z m-559 -14 c-2 -16 -31 -33 -127 -75 -84 -37 -128 -51
-139 -45 -11 6 2 18 57 51 88 51 170 89 194 89 13 1 17 -5 15 -20z m562 -79
c0 -25 -28 -39 -186 -94 -252 -87 -430 -158 -518 -207 -73 -40 -94 -48 -115
-41 -13 4 -26 13 -28 19 -5 15 115 93 144 93 13 0 43 10 65 21 67 34 270 112
438 168 85 28 162 55 170 61 18 11 30 4 30 -20z m0 -64 c0 -19 -17 -31 -75
-55 -28 -11 -45 -20 -39 -20 6 -1 28 6 47 14 41 17 67 19 67 6 0 -9 -416 -151
-440 -151 -6 0 -9 3 -6 8 2 4 -13 6 -35 4 -21 -2 -47 -1 -57 3 -17 6 55 35
388 155 154 56 150 55 150 36z m-537 -207 c20 -5 37 -14 37 -18 0 -8 -133 -72
-148 -70 -4 0 24 16 63 35 96 47 66 43 -49 -7 -90 -38 -132 -46 -130 -24 2 12
153 95 174 95 8 0 32 -5 53 -11z m527 -99 c0 -61 -4 -110 -9 -110 -19 0 -23
-41 -7 -59 9 -10 16 -28 16 -40 0 -19 -4 -22 -22 -18 -65 14 -488 143 -488
149 0 3 33 19 73 34 79 31 417 151 430 153 4 1 7 -48 7 -109z m836 -57 c-4 -9
-10 -37 -13 -61 l-6 -45 -18 34 c-24 45 -23 64 4 77 32 15 40 14 33 -5z
m-1356 -138 c13 -38 25 -76 28 -83 4 -11 -241 68 -256 83 -7 7 -9 6 93 52 68
31 93 38 101 30 7 -7 22 -43 34 -82z m61 56 c30 -10 145 -44 257 -77 l202 -58
0 -84 c0 -76 -2 -83 -17 -77 -10 4 -115 36 -233 71 -118 36 -217 68 -221 72
-7 8 -59 153 -59 165 0 11 11 9 71 -12z m-261 -86 c16 -8 73 -31 127 -50 110
-40 135 -56 75 -48 -34 5 -42 2 -52 -16 -13 -25 1 -81 26 -101 28 -24 13 -29
-38 -11 -159 55 -271 105 -275 122 -7 25 -23 24 -23 -1 0 -18 -1 -18 -30 -2
-16 9 -30 19 -30 22 0 12 147 99 168 99 13 1 36 -6 52 -14z m1130 -182 c162
-60 295 -128 347 -176 26 -24 77 -58 113 -75 45 -21 89 -54 143 -107 l77 -77
0 -131 c0 -72 -4 -127 -8 -121 -5 5 -32 39 -61 76 -87 109 -287 269 -423 339
-63 32 -65 34 -93 103 -27 66 -45 71 -45 13 l0 -45 -147 58 c-82 31 -156 60
-165 63 -15 5 -18 19 -18 91 l0 84 93 -30 c50 -16 135 -45 187 -65z m-1292
-21 c2 -40 0 -72 -2 -72 -3 0 -37 20 -76 45 -39 25 -73 45 -77 45 -15 0 45
-53 104 -91 l63 -41 0 -74 c0 -41 -3 -74 -6 -74 -3 0 -36 20 -74 45 l-69 44 6
50 c5 47 4 52 -27 81 l-33 31 61 60 61 61 33 -19 c32 -18 33 -21 36 -91z m602
50 c74 -22 168 -50 208 -62 l72 -21 0 -90 c0 -89 0 -90 -22 -83 -73 22 -85 31
-108 88 -12 31 -26 56 -31 56 -4 0 -9 -20 -11 -44 l-3 -43 -107 34 c-104 32
-108 35 -108 62 0 15 -13 53 -30 84 -35 66 -38 82 -12 69 9 -6 78 -28 152 -50z
m-435 -50 c101 -40 271 -98 445 -151 l95 -29 3 -86 c1 -47 1 -86 -2 -86 -2 0
-98 32 -213 71 -238 82 -373 137 -384 159 -21 42 -69 154 -69 162 0 6 6 8 13
5 6 -3 57 -23 112 -45z m-110 -87 c6 -29 6 -29 -9 -11 -9 11 -16 29 -16 40 0
28 17 8 25 -29z m1107 -49 c197 -78 178 -60 178 -176 0 -55 -2 -100 -4 -100
-3 0 -21 10 -41 21 -20 12 -91 46 -158 75 l-122 53 -3 91 c-1 49 1 90 6 90 5
0 70 -24 144 -54z m-1352 -94 c0 -30 -4 -43 -12 -40 -20 6 -71 115 -64 134 6
15 12 12 41 -16 30 -29 35 -41 35 -78z m280 2 c0 -29 4 -55 9 -58 10 -6 21 40
21 86 0 23 3 28 13 20 19 -16 199 -85 396 -153 l181 -62 0 -78 c0 -44 -3 -79
-6 -79 -24 0 -513 194 -603 240 l-61 30 0 77 0 76 25 -23 c21 -19 25 -33 25
-76z m-135 -64 l55 -31 0 -55 c0 -34 4 -53 10 -49 6 3 10 21 10 39 0 18 3 35
6 38 3 3 47 -13 97 -37 51 -23 130 -57 177 -74 47 -17 155 -57 240 -89 l155
-58 5 -74 c3 -41 5 -76 5 -78 -1 -1 -40 15 -86 37 -46 21 -169 73 -274 115
-200 81 -356 159 -456 226 l-59 41 0 65 0 66 30 -25 c16 -14 54 -39 85 -57z
m922 -26 l3 -79 -34 72 c-19 40 -37 81 -41 92 -6 19 -4 20 32 7 l38 -13 2 -79z
m1221 -114 c11 -36 23 -90 26 -120 l6 -55 -55 103 c-54 100 -55 105 -54 180
l1 77 28 -60 c16 -33 37 -89 48 -125z m-484 58 c112 -79 237 -201 304 -297 48
-68 52 -79 52 -131 l0 -57 -37 -6 c-21 -3 -45 -8 -53 -11 -10 -4 -24 8 -44 40
-37 58 -166 195 -240 254 -37 30 -60 57 -67 80 -6 19 -29 76 -50 127 -22 51
-39 97 -39 103 0 14 58 -20 174 -102z m-351 -36 l72 -38 5 -102 c3 -56 3 -102
1 -102 -2 0 -31 17 -65 37 -33 21 -106 61 -161 89 l-100 52 -3 90 -3 91 91
-39 c50 -21 124 -56 163 -78z m-453 30 c0 -10 -5 -10 -20 -2 -15 8 -20 21 -20
48 l1 37 19 -35 c11 -19 19 -41 20 -48z m623 -29 c14 -35 24 -63 21 -63 -3 0
-16 7 -29 16 -21 14 -25 24 -25 67 0 28 2 48 4 46 2 -2 15 -32 29 -66z m-598
-41 c3 -9 9 -52 12 -95 l6 -79 -41 21 -42 21 0 85 0 84 29 -10 c16 -6 32 -18
36 -27z m610 -64 c40 -31 55 -77 55 -170 1 -81 1 -82 16 -55 9 16 21 56 28 89
l12 59 106 -109 c58 -61 118 -131 133 -157 l28 -47 -26 -21 c-30 -25 -57 -83
-57 -124 0 -26 -2 -26 -25 16 -51 88 -162 212 -271 302 -30 24 -31 28 -37 132
-4 59 -3 107 2 107 4 0 21 -10 36 -22z m665 -212 c11 -69 11 -96 0 -147 l-13
-62 -38 74 -38 74 0 150 0 150 39 -77 c27 -55 42 -103 50 -162z m-884 86 c124
-72 124 -72 124 -186 0 -42 -2 -47 -17 -41 -10 4 -36 13 -59 19 -22 7 -67 31
-100 53 -32 22 -83 52 -111 68 l-53 28 0 89 0 88 53 -26 c28 -14 102 -55 163
-92z m-350 10 c-12 -11 -17 7 -9 34 l8 29 3 -28 c2 -16 1 -31 -2 -35z m-45
-33 l49 -21 0 -90 0 -89 -52 34 -53 33 -3 77 c-2 42 0 77 3 77 4 0 29 -10 56
-21z m282 -150 c31 -18 57 -37 57 -40 0 -4 -11 -10 -25 -13 -14 -4 -43 -23
-65 -42 -57 -52 -70 -38 -70 73 l0 85 23 -14 c12 -8 48 -30 80 -49z m379 -26
c121 -118 228 -273 228 -331 0 -10 -24 -42 -54 -71 l-54 -53 -20 45 c-27 61
-86 152 -137 212 l-43 51 -4 112 c-1 62 -1 112 1 112 2 0 39 -35 83 -77z
m-462 -112 c0 -6 -4 -13 -10 -16 -5 -3 -10 1 -10 9 0 9 5 16 10 16 6 0 10 -4
10 -9z m45 -165 c13 -9 45 -20 72 -26 31 -7 56 -21 71 -38 40 -48 98 -136 124
-187 46 -90 46 -89 -21 -130 -33 -21 -117 -64 -186 -96 l-125 -58 0 307 0 307
21 -32 c11 -17 31 -38 44 -47z m371 2 c52 -71 117 -193 112 -213 -3 -12 -106
-105 -117 -105 -3 0 -22 35 -41 77 -19 43 -58 109 -87 147 l-52 70 37 16 c20
10 48 29 61 44 14 14 28 26 33 26 4 0 29 -28 54 -62z m360 -29 c18 -11 46 -22
61 -25 15 -3 29 -7 31 -9 7 -6 -44 -86 -83 -130 l-35 -40 7 66 c4 48 1 80 -10
113 -9 25 -13 46 -10 46 3 0 21 -9 39 -21z m204 13 c0 -12 -57 -97 -74 -111
-26 -22 4 72 31 97 25 23 43 29 43 14z m-270 -111 c0 -32 -9 -49 -52 -100 -28
-34 -55 -61 -60 -61 -4 0 -8 19 -8 41 0 36 7 49 53 99 28 33 55 59 60 59 4 1
7 -17 7 -38z m110 -99 c0 -13 -79 -86 -86 -80 -9 9 13 44 42 67 28 22 44 27
44 13z m-280 -57 c0 -31 -6 -38 -61 -75 -33 -22 -62 -40 -65 -40 -2 0 -4 11
-4 24 0 18 17 38 63 74 34 28 63 51 65 51 1 1 2 -15 2 -34z m160 17 c0 -18
-105 -100 -115 -91 -11 11 24 55 60 75 43 25 55 28 55 16z m-340 -138 c0 -13
-91 -64 -114 -64 -25 0 -8 25 33 48 21 12 44 29 51 37 11 13 15 13 21 3 5 -7
9 -18 9 -24z m145 -2 c-6 -5 -27 -19 -47 -31 -32 -19 -38 -20 -38 -7 0 9 1 16
3 16 1 0 20 7 42 15 48 17 52 18 40 7z m105 -11 c0 -11 -40 -41 -54 -41 -5 0
1 11 14 25 24 26 40 32 40 16z m-250 -31 c0 -11 -90 -52 -104 -47 -6 2 12 16
39 30 55 29 65 31 65 17z m130 -15 c0 -8 -74 -55 -88 -55 -19 0 -5 19 32 41
29 18 56 25 56 14z m-160 -70 c-12 -14 -80 -38 -88 -30 -4 4 76 43 92 44 5 1
3 -6 -4 -14z m-310 -23 c0 -11 -37 -32 -44 -25 -11 11 -6 21 12 26 28 8 32 7
32 -1z m190 -17 c0 -7 -91 -51 -120 -59 -14 -3 7 10 45 29 78 38 75 37 75 30z
m-173 -41 c-16 -8 -34 -13 -40 -11 -7 3 -1 9 13 15 38 16 59 13 27 -4z m-197
-13 c0 -5 -16 -18 -35 -30 -41 -24 -47 -12 -9 18 29 22 44 27 44 12z m10 -86
c0 -2 -21 -16 -47 -30 -27 -14 -64 -35 -83 -47 -41 -25 -31 -14 25 28 52 38
105 63 105 49z m-251 -95 c-12 -21 -28 -41 -36 -44 -16 -7 -12 3 25 52 33 44
38 40 11 -8z m866 26 c127 -33 231 -122 288 -243 40 -86 49 -215 22 -309 -81
-281 -423 -476 -763 -435 -174 21 -300 79 -409 187 -101 99 -138 178 -138 289
0 96 28 163 102 245 63 71 261 208 277 193 3 -4 6 -70 6 -147 0 -78 5 -170 11
-206 20 -128 87 -229 175 -266 41 -17 133 -18 188 -2 64 19 141 101 162 173
30 106 -11 205 -101 246 -49 23 -87 24 -125 4 -44 -23 -70 -62 -70 -107 0 -34
23 -98 34 -98 3 0 12 -3 22 -7 16 -6 15 -2 -4 24 -43 61 -18 120 54 130 90 12
154 -50 154 -147 0 -89 -56 -156 -152 -181 -92 -25 -171 27 -203 133 -8 29
-18 109 -21 178 -6 114 -5 129 14 166 71 139 303 227 477 180z m-855 -76 c-20
-17 -37 -24 -39 -18 -5 15 36 48 58 48 11 0 5 -10 -19 -30z m-100 -79 c0 -6
-11 -23 -25 -38 -19 -22 -24 -24 -25 -10 0 9 9 26 20 37 22 22 30 25 30 11z
m-94 -138 c-11 -21 -15 -23 -16 -10 0 24 22 65 27 50 2 -6 -3 -24 -11 -40z"/>
<path d="M330 8071 c0 -27 11 -52 20 -46 9 6 1 53 -11 61 -5 3 -9 -4 -9 -15z"/>
<path d="M2211 7164 c0 -11 3 -14 6 -6 3 7 2 16 -1 19 -3 4 -6 -2 -5 -13z"/>
<path d="M2182 7030 c-18 -29 -15 -33 8 -10 21 21 25 30 12 30 -4 0 -13 -9
-20 -20z"/>
<path d="M1110 6450 c-8 -5 -10 -10 -5 -10 6 0 17 5 25 10 8 5 11 10 5 10 -5
0 -17 -5 -25 -10z"/>
<path d="M1704 5943 c3 -21 6 -49 6 -63 0 -18 3 -21 9 -11 6 9 11 10 15 2 11
-17 26 -13 26 6 0 17 -47 103 -57 103 -3 0 -3 -17 1 -37z"/>
<path d="M1651 5827 c-16 -21 -25 -74 -12 -81 10 -7 41 53 41 80 0 18 -14 18
-29 1z"/>
<path d="M1701 5788 c1 -47 16 -108 18 -74 1 18 4 17 31 -9 l31 -29 -14 39
c-22 60 -50 115 -59 115 -4 0 -8 -19 -7 -42z"/>
<path d="M2180 5143 c0 -12 5 -25 10 -28 13 -8 13 15 0 35 -8 12 -10 11 -10
-7z"/>
<path d="M2632 4920 c0 -19 2 -27 5 -17 2 9 2 25 0 35 -3 9 -5 1 -5 -18z"/>
<path d="M2124 4638 l-19 -23 23 19 c21 18 27 26 19 26 -2 0 -12 -10 -23 -22z"/>
<path d="M2175 4400 c-3 -6 1 -7 9 -4 18 7 21 14 7 14 -6 0 -13 -4 -16 -10z"/>
<path d="M468 3578 c-16 -5 -28 -14 -28 -19 0 -17 57 -9 75 11 17 19 17 20 -1
19 -10 0 -31 -5 -46 -11z"/>
<path d="M399 3530 c-13 -10 -19 -19 -13 -20 6 0 19 9 29 20 23 26 14 26 -16
0z"/>
<path d="M1105 3590 c-13 -6 -15 -9 -5 -9 8 0 22 4 30 9 18 12 2 12 -25 0z"/>
<path d="M940 3530 c-8 -5 -10 -10 -5 -10 6 0 17 5 25 10 8 5 11 10 5 10 -5 0
-17 -5 -25 -10z"/>
<path d="M2202 8235 l1 -440 11 370 11 370 49 -65 c26 -36 53 -76 58 -90 13
-33 3 -101 -22 -150 -24 -47 -25 -57 -6 -40 23 18 76 105 86 139 14 49 -4 91
-88 203 -42 58 -82 114 -89 124 -9 15 -12 -77 -11 -421z"/>
<path d="M381 8644 c0 -11 3 -14 6 -6 3 7 2 16 -1 19 -3 4 -6 -2 -5 -13z"/>
<path d="M312 8525 c0 -16 2 -22 5 -12 2 9 2 23 0 30 -3 6 -5 -1 -5 -18z"/>
<path d="M326 8495 c-3 -9 -6 -26 -5 -38 1 -16 4 -12 10 12 10 34 6 55 -5 26z"/>
<path d="M2580 8071 c-13 -25 -13 -78 0 -86 5 -3 16 11 25 31 23 55 1 103 -25
55z"/>
<path d="M2622 7790 c-46 -19 -66 -122 -37 -185 l13 -30 1 38 c1 29 9 46 30
68 38 38 65 37 108 -6 28 -28 33 -30 27 -12 -13 46 -56 107 -84 122 -16 8 -30
15 -32 14 -2 0 -13 -4 -26 -9z"/>
<path d="M798 6253 c7 -3 16 -2 19 1 4 3 -2 6 -13 5 -11 0 -14 -3 -6 -6z"/>
<path d="M925 6176 c-107 -39 -197 -77 -192 -82 3 -4 297 103 305 111 13 12
-30 2 -113 -29z"/>
<path d="M770 6030 c-8 -5 -10 -10 -5 -10 6 0 17 5 25 10 8 5 11 10 5 10 -5 0
-17 -5 -25 -10z"/>
<path d="M2630 5938 c0 -41 4 -68 11 -68 13 0 68 -118 75 -161 4 -22 -2 -53
-14 -87 -23 -58 -6 -56 22 2 26 56 19 102 -39 246 l-55 135 0 -67z"/>
<path d="M1025 5975 c-39 -17 -21 -18 25 0 19 7 28 14 20 14 -8 0 -28 -6 -45
-14z"/>
<path d="M2647 5282 c-19 -21 -23 -67 -7 -77 16 -10 50 37 47 64 -3 31 -19 36
-40 13z"/>
<path d="M2701 5178 c-5 -13 -11 -48 -14 -78 -3 -30 -4 -46 -1 -35 3 11 12 25
21 32 19 14 29 88 14 97 -6 4 -15 -3 -20 -16z"/>
<path d="M299 3603 l-24 -28 28 24 c25 23 32 31 24 31 -2 0 -14 -12 -28 -27z"/>
<path d="M160 3439 c-7 -11 -10 -23 -7 -25 2 -2 9 7 15 21 14 30 7 33 -8 4z"/>
<path d="M140 3340 c-6 -11 -8 -20 -6 -20 3 0 10 9 16 20 6 11 8 20 6 20 -3 0
-10 -9 -16 -20z"/>
<path d="M135 3249 c-4 -6 -5 -12 -2 -15 2 -3 7 2 10 11 7 17 1 20 -8 4z"/>
<path d="M143 3203 c0 -9 7 -24 16 -33 9 -9 22 -25 29 -36 7 -10 1 5 -13 34
-27 56 -32 61 -32 35z"/>
<path d="M97 3123 c-10 -9 -9 -41 2 -47 4 -3 8 8 7 24 -1 17 -1 30 -2 30 0 0
-4 -3 -7 -7z"/>
</g>
</svg>
