<svg xmlns="http://www.w3.org/2000/svg" version="1.0" preserveAspectRatio="xMidYMid meet" viewBox="131.42 163.4 737.15 729.6">
<metadata>
Created by potrace 1.16, written by Peter Selinger 2001-2019
</metadata>
<g transform="translate(0.000000,1024.000000) scale(0.100000,-0.100000)" fill="#000000" stroke="none">
<path d="M7605 8599 c-44 -4 -123 -12 -175 -18 -52 -6 -129 -13 -170 -16 -393 -28 -614 -44 -670 -50 -74 -7 -401 -34 -625 -50 -115 -9 -300 -24 -410 -35 -173 -17 -276 -25 -530 -45 -27 -2 -90 -7 -140 -10 -86 -5 -275 -21 -380 -30 -59 -6 -156 -15 -205 -20 -19 -2 -78 -6 -130 -10 -52 -3 -147 -10 -210 -15 -63 -5 -155 -12 -205 -15 -49 -3 -171 -12 -270 -20 -99 -8 -220 -17 -270 -20 -49 -3 -115 -8 -145 -10 -30 -3 -172 -12 -315 -20 -374 -23 -445 -36 -670 -127 -55 -22 -145 -58 -200 -79 -123 -48 -172 -82 -205 -139 -23 -42 -25 -55 -27 -190 0 -85 7 -215 17 -315 11 -93 24 -242 30 -330 6 -88 17 -236 25 -330 8 -93 17 -218 20 -278 4 -59 8 -117 10 -130 2 -12 9 -92 15 -177 6 -85 15 -220 21 -300 6 -80 17 -215 25 -300 15 -160 38 -444 49 -610 4 -52 10 -127 15 -166 5 -39 12 -107 15 -150 3 -44 12 -131 20 -194 8 -63 19 -196 25 -295 5 -99 14 -223 20 -275 28 -276 41 -424 50 -610 6 -113 15 -245 20 -295 5 -49 12 -121 16 -160 3 -38 7 -83 9 -100 2 -16 6 -82 10 -145 3 -63 13 -177 21 -252 8 -75 14 -142 14 -148 0 -5 -18 -10 -39 -10 -22 0 -43 -5 -46 -11 -10 -15 -4 -18 43 -20 32 -2 42 -7 42 -20 0 -13 -14 -18 -70 -23 -60 -6 -70 -10 -70 -27 0 -18 5 -19 70 -13 66 7 70 6 70 -14 0 -23 -14 -26 -155 -37 -38 -3 -99 -10 -135 -15 -36 -5 -84 -10 -106 -10 -39 0 -75 -22 -60 -37 5 -5 400 13 440 20 6 1 11 -5 11 -13 0 -11 -17 -17 -70 -21 -358 -32 -552 -51 -564 -55 -11 -4 -11 -7 0 -21 16 -18 91 -16 443 12 105 8 192 12 195 10 9 -10 -6 -14 -64 -19 -76 -6 -227 -23 -325 -36 -41 -5 -124 -15 -185 -21 -106 -10 -141 -21 -129 -40 7 -13 81 -11 278 6 94 8 197 17 229 19 59 5 77 -6 30 -19 -34 -9 -130 -21 -278 -35 -141 -14 -155 -17 -155 -36 0 -14 10 -15 68 -9 101 10 422 13 427 4 5 -8 -39 -16 -125 -23 -73 -6 -172 -17 -207 -22 -25 -4 -33 -10 -33 -26 0 -19 4 -20 58 -14 31 4 109 9 172 12 63 2 141 7 173 10 77 7 73 -11 -5 -22 -54 -8 -63 -12 -66 -31 -3 -22 -1 -23 70 -22 40 0 127 4 193 9 66 4 127 4 135 0 22 -12 -13 -18 -185 -30 -286 -21 -322 -27 -298 -51 7 -7 51 -7 144 0 74 6 184 11 244 12 101 1 212 9 550 38 66 6 291 25 500 41 209 17 390 33 402 35 13 3 20 11 17 18 -7 20 18 38 36 26 13 -8 13 -10 0 -18 -21 -14 -7 -23 24 -15 29 7 34 19 10 28 -22 8 -7 26 22 26 26 0 31 -9 12 -28 -15 -15 -4 -26 17 -18 11 4 14 12 10 26 -5 17 -2 20 20 20 22 0 24 -3 15 -19 -15 -29 -14 -30 33 -26 23 3 112 11 197 19 85 8 225 20 310 26 151 11 309 25 400 36 25 3 53 13 64 22 14 13 20 14 23 5 3 -7 11 -13 19 -13 9 0 12 5 9 10 -3 6 1 13 10 17 10 3 21 0 26 -8 6 -10 26 -13 76 -11 93 4 104 8 97 36 -4 18 -1 25 18 30 36 9 108 7 108 -4 0 -5 -4 -10 -10 -10 -5 0 -10 -7 -10 -15 0 -9 9 -15 23 -15 27 0 352 27 417 35 25 3 146 12 269 20 123 8 229 19 235 25 7 7 6 14 -2 22 -21 21 -13 37 21 43 65 11 342 24 350 16 5 -5 -3 -11 -17 -15 -17 -4 -23 -11 -20 -21 8 -20 81 -19 284 0 247 25 346 34 480 45 111 9 202 17 375 35 28 3 149 14 270 25 276 26 285 27 285 46 0 13 -22 15 -147 13 -82 -1 -218 -10 -303 -19 -85 -10 -186 -21 -225 -24 -38 -4 -139 -14 -224 -22 -104 -11 -156 -13 -163 -6 -7 7 0 12 23 16 48 9 343 43 479 56 63 6 124 12 135 14 11 2 79 7 150 11 l130 7 75 77 c42 42 115 121 164 176 49 55 139 153 200 218 61 65 115 126 120 135 21 36 35 128 31 201 -2 42 -6 135 -10 206 -9 227 -16 359 -21 410 -2 28 -8 109 -14 180 -6 72 -13 155 -15 185 -3 30 -8 80 -11 110 -2 30 -6 75 -9 100 -3 25 -9 108 -15 185 -5 77 -12 167 -15 200 -16 192 -25 311 -31 395 -3 52 -14 181 -25 286 -23 229 -25 254 -44 509 -23 292 -24 312 -30 374 -17 186 -38 415 -55 616 -11 127 -22 248 -25 270 -6 46 -33 330 -40 420 -2 33 -7 123 -10 200 -7 166 -20 319 -40 470 -8 61 -17 151 -20 200 -13 201 -18 241 -36 290 -23 62 -86 126 -154 157 -45 21 -65 23 -215 24 -91 0 -201 -3 -245 -7z m388 -182 c78 -60 105 -155 131 -474 9 -106 18 -209 21 -230 2 -21 9 -76 14 -123 6 -47 13 -141 16 -210 8 -151 32 -442 44 -525 5 -33 12 -100 16 -150 3 -49 8 -101 10 -115 8 -51 41 -481 61 -785 17 -271 35 -510 44 -575 5 -41 14 -136 20 -210 12 -151 31 -347 35 -370 1 -8 6 -58 9 -110 4 -52 9 -115 11 -140 2 -25 11 -146 20 -270 8 -124 20 -277 26 -340 47 -481 58 -946 26 -1020 -21 -47 -73 -99 -122 -121 -37 -16 -155 -41 -250 -53 -22 -2 -132 -16 -245 -30 -113 -14 -257 -30 -320 -36 -63 -6 -234 -25 -380 -41 -146 -16 -296 -31 -335 -34 -38 -3 -140 -12 -225 -20 -85 -8 -240 -22 -345 -30 -215 -17 -655 -64 -945 -100 -178 -22 -443 -47 -785 -75 -71 -6 -166 -15 -210 -20 -193 -23 -387 -40 -610 -55 -132 -9 -327 -25 -433 -36 -234 -23 -330 -24 -379 -4 -101 42 -121 102 -148 425 -18 227 -28 339 -55 620 -30 314 -59 718 -75 1035 -6 131 -12 186 -39 395 -8 63 -18 185 -21 270 -3 85 -10 214 -16 285 -5 72 -12 175 -14 230 -5 100 -17 240 -35 410 -5 50 -12 149 -15 220 -3 72 -10 191 -15 265 -5 74 -12 185 -15 245 -12 229 -26 425 -59 810 -19 225 -32 447 -29 515 6 143 73 203 258 229 39 6 214 19 390 31 428 27 735 49 762 55 32 7 500 44 698 55 94 5 193 12 220 14 67 7 150 13 410 31 121 8 297 22 390 30 94 8 262 22 375 30 113 9 304 25 425 35 121 11 346 29 500 40 154 11 298 22 320 25 22 2 99 7 172 11 72 3 196 10 275 14 78 4 198 7 264 6 115 -2 124 -3 157 -29z m-5799 -473 c26 -10 18 -41 -16 -67 -35 -26 -268 -123 -309 -129 -20 -2 -25 2 -27 23 -4 38 36 68 165 122 135 56 157 62 187 51z m30 -150 c9 -3 16 -16 16 -28 0 -24 -7 -28 -230 -123 -146 -61 -170 -64 -170 -18 0 27 28 45 154 99 162 70 200 81 230 70z m34 -170 c2 -11 -3 -26 -11 -32 -24 -20 -332 -140 -368 -144 -32 -3 -34 -1 -37 29 -4 38 -3 38 203 122 136 56 207 64 213 25z m-4 -143 c10 -11 15 -25 11 -32 -17 -27 -364 -157 -386 -143 -15 9 -10 40 9 57 25 23 292 135 323 136 14 1 34 -8 43 -18z m24 -133 c19 -19 14 -52 -9 -66 -55 -35 -347 -152 -378 -152 -15 0 -23 37 -12 57 12 22 39 36 216 112 149 64 164 68 183 49z m-8 -178 c10 -6 11 -13 5 -19 -17 -17 -256 -112 -266 -106 -5 4 -9 2 -9 -3 0 -12 -54 -32 -86 -32 -13 0 -26 5 -30 12 -9 15 26 40 49 34 9 -2 17 0 17 5 0 12 30 27 155 75 114 45 140 50 165 34z m27 -115 c4 -12 -247 -119 -284 -122 -25 -2 -30 9 -10 24 6 5 59 29 117 52 58 23 112 46 120 51 18 12 52 9 57 -5z m-337 -125 c0 -13 -28 -25 -38 -16 -3 4 0 11 8 16 20 13 30 12 30 0z m336 -1 c15 -24 -28 -44 -264 -120 -24 -8 -37 -8 -47 1 -12 10 -15 9 -15 -3 0 -9 -9 -21 -21 -27 -27 -15 -64 -9 -64 10 0 17 43 40 138 71 66 22 67 22 81 3 8 -10 18 -16 22 -12 4 4 1 14 -6 23 -11 13 -7 17 21 29 92 37 142 45 155 25z m32 -140 c3 -24 -3 -28 -75 -56 -43 -17 -98 -36 -123 -43 -25 -6 -76 -22 -114 -36 -63 -22 -116 -31 -116 -20 0 2 -3 11 -6 20 -7 18 39 43 136 74 36 12 106 37 155 56 107 41 139 43 143 5z m2 -132 c0 -22 -355 -157 -411 -157 -22 0 -26 34 -6 47 25 16 363 122 390 123 16 0 27 -5 27 -13z m15 -126 c0 -25 -1 -26 -213 -100 -67 -23 -128 -41 -134 -39 -7 3 -19 -1 -26 -9 -19 -18 -49 -16 -57 4 -11 29 24 47 197 103 90 28 174 56 188 60 35 11 45 7 45 -19z m15 -148 c0 -8 -25 -25 -56 -39 -73 -32 -286 -103 -334 -110 -33 -5 -39 -3 -45 16 -11 35 20 56 140 94 61 18 144 45 185 58 67 22 77 23 93 10 9 -8 17 -21 17 -29z m10 -122 c31 -59 8 -75 -208 -145 -185 -59 -222 -59 -222 0 0 32 31 50 145 85 55 17 129 42 165 54 80 29 106 31 120 6z m14 -157 c22 -21 20 -67 -3 -88 -24 -22 -267 -110 -349 -127 -54 -11 -64 -11 -72 1 -15 24 -11 66 8 82 9 9 85 39 167 68 83 28 166 58 185 65 46 18 46 18 64 -1z m17 -207 c4 -16 5 -35 3 -42 -12 -32 -382 -153 -424 -140 -15 5 -20 15 -20 40 0 19 6 37 13 42 18 12 273 103 332 118 69 19 87 15 96 -18z m19 -161 c36 -45 -11 -82 -165 -130 -261 -81 -285 -84 -285 -26 0 39 24 54 151 92 57 17 136 41 174 53 83 28 109 30 125 11z m0 -170 c20 -25 7 -59 -29 -80 -41 -23 -346 -126 -376 -126 -41 0 -58 39 -31 75 13 18 357 141 402 144 12 0 27 -6 34 -13z m5 -166 c33 -36 13 -67 -68 -104 -40 -19 -93 -41 -119 -51 -58 -20 -94 -48 -84 -63 11 -19 31 -15 140 28 56 22 111 40 122 40 27 0 47 -40 29 -57 -24 -22 -150 -80 -245 -113 -52 -18 -112 -41 -134 -52 -34 -18 -40 -18 -54 -5 -10 11 -13 25 -8 51 6 29 15 40 46 56 22 11 40 24 40 28 0 19 -25 31 -52 25 -33 -6 -48 7 -48 43 0 31 22 45 155 102 240 103 250 105 280 72z m45 -345 c0 -26 -77 -66 -265 -141 -116 -46 -144 -53 -163 -44 -18 8 -23 17 -20 38 2 22 14 33 68 59 84 42 258 111 307 121 44 10 73 -3 73 -33z m10 -134 c5 -11 8 -26 5 -33 -3 -8 -46 -36 -95 -63 -147 -82 -150 -84 -150 -105 0 -31 41 -25 137 20 47 22 92 40 99 40 17 0 28 -42 20 -74 -5 -20 -30 -33 -163 -85 -86 -34 -179 -69 -206 -78 -47 -15 -51 -15 -63 2 -31 42 -18 63 60 95 64 27 91 55 67 69 -8 5 -27 5 -45 -1 -65 -21 -94 -21 -105 0 -25 47 -4 62 195 148 104 45 199 82 211 83 13 1 27 -7 33 -18z m9 -324 c18 -23 22 -71 8 -89 -12 -15 -298 -125 -369 -142 -32 -7 -58 14 -58 48 0 31 23 48 100 76 36 12 115 45 175 71 121 53 128 55 144 36z m24 -210 c7 -21 6 -32 -4 -42 -17 -16 -251 -107 -337 -131 -73 -20 -92 -15 -92 25 0 41 16 50 200 114 85 30 162 57 170 60 31 12 54 2 63 -26z m7 -141 c19 -24 8 -60 -25 -75 -46 -22 -344 -121 -365 -121 -29 0 -45 27 -32 54 8 18 34 31 119 60 59 19 142 49 183 65 86 34 103 37 120 17z m9 -150 c7 -8 14 -30 18 -48 5 -32 3 -36 -28 -47 -108 -41 -164 -69 -167 -84 -5 -24 27 -22 120 7 84 26 98 22 98 -26 0 -39 -34 -58 -219 -118 -167 -54 -197 -59 -217 -32 -30 39 -6 85 52 101 20 5 30 15 32 30 4 22 2 23 -46 16 -45 -6 -52 -4 -62 15 -23 42 6 62 161 113 79 26 162 56 184 66 49 24 59 25 74 7z m41 -340 c0 -19 -10 -28 -52 -44 -29 -11 -105 -40 -168 -65 -192 -75 -220 -78 -220 -22 0 31 12 38 105 63 44 12 134 39 200 61 66 21 123 37 128 34 4 -2 7 -15 7 -27z m0 -126 c19 -36 -4 -54 -137 -107 -234 -92 -288 -100 -288 -43 0 20 13 28 105 60 93 32 205 75 265 100 32 14 44 11 55 -10z m18 -175 c11 -34 11 -41 -5 -56 -20 -19 -370 -149 -401 -149 -27 0 -44 24 -40 57 3 26 12 32 113 71 61 24 151 61 200 82 50 22 97 39 105 37 8 -1 21 -20 28 -42z m10 -170 c-3 -14 -1 -28 3 -31 5 -3 9 -16 9 -29 0 -29 -5 -31 -234 -116 -87 -33 -169 -59 -181 -59 -41 0 -48 64 -12 98 27 25 360 161 396 162 20 0 23 -4 19 -25z m12 -180 c29 -35 1 -59 -120 -107 -36 -14 -111 -44 -167 -67 -57 -22 -110 -41 -118 -41 -19 0 -21 53 -2 68 25 20 358 160 383 161 6 1 17 -6 24 -14z m9 -182 c8 -28 8 -41 -2 -50 -14 -13 -361 -143 -383 -143 -17 0 -48 46 -39 60 16 26 343 167 392 169 17 1 24 -7 32 -36z m0 -165 c5 -14 5 -28 -1 -35 -17 -21 -362 -128 -385 -119 -8 4 -13 16 -11 28 3 20 26 31 183 85 99 34 186 62 193 62 7 1 16 -9 21 -21z m21 -137 c0 -20 -88 -65 -151 -78 -19 -3 -36 -9 -39 -13 -9 -12 -172 -61 -186 -56 -20 8 -17 34 6 46 10 5 78 31 151 56 88 31 139 44 156 39 20 -5 24 -3 20 9 -5 12 0 16 18 16 18 0 25 -5 25 -19z m5 -135 c0 -27 -340 -163 -361 -145 -34 28 26 62 246 138 95 33 115 34 115 7z m5095 -51 c0 -13 -73 -135 -81 -135 -5 0 -9 3 -9 6 0 5 49 97 67 127 5 8 23 10 23 2z m124 -10 c-4 -8 -8 -15 -10 -15 -2 0 -4 7 -4 15 0 8 4 15 10 15 5 0 7 -7 4 -15z m116 10 c0 -11 -56 -105 -62 -105 -14 0 -8 21 18 66 22 37 44 57 44 39z m-542 -93 c-38 -81 -36 -78 -49 -65 -16 16 53 149 72 138 4 -3 -6 -36 -23 -73z m163 56 c-37 -93 -52 -121 -63 -110 -9 9 -4 27 18 71 16 33 35 60 41 60 9 1 10 -6 4 -21z m647 0 c-6 -18 -28 -21 -28 -4 0 9 7 16 16 16 9 0 14 -5 12 -12z m-916 -15 c-46 -105 -67 -143 -78 -143 -8 0 -14 5 -14 11 0 16 81 149 91 149 5 0 5 -8 1 -17z m-122 -9 c0 -19 -103 -216 -137 -262 -13 -18 -28 -30 -33 -27 -14 9 137 305 155 305 8 0 15 -7 15 -16z m855 -6 c-4 -13 -14 -34 -23 -48 -23 -37 -29 -5 -7 37 21 37 40 45 30 11z m-5403 -5 c7 -25 -1 -42 -24 -54 -40 -21 -184 -70 -263 -89 -70 -17 -81 -18 -94 -5 -11 11 -12 18 -4 26 15 15 333 138 359 138 13 1 24 -6 26 -16z m5158 8 c0 -5 -9 -19 -20 -32 -21 -26 -27 -10 -8 21 13 21 28 27 28 11z m-1030 -168 c-70 -138 -100 -179 -100 -137 0 9 29 73 65 141 36 68 65 130 65 137 0 18 22 27 35 15 6 -6 -19 -64 -65 -156z m280 149 c0 -25 -127 -282 -140 -282 -19 0 -8 35 40 130 27 52 57 112 67 133 19 40 33 48 33 19z m-182 -163 c-43 -88 -73 -139 -83 -139 -8 0 -15 2 -15 5 0 7 54 120 61 125 5 4 47 83 83 157 9 17 12 19 16 7 3 -8 -25 -78 -62 -155z m-151 135 c4 -13 -150 -287 -164 -292 -22 -7 -14 21 33 113 86 170 119 215 131 179z m-257 -9 c11 -13 6 -29 -30 -98 -86 -165 -139 -231 -170 -212 -20 12 -9 42 55 148 36 60 65 112 65 116 0 12 47 61 58 61 5 0 15 -7 22 -15z m130 -1 c0 -18 -72 -168 -113 -236 -16 -27 -35 -48 -43 -48 -17 0 -13 11 71 183 52 105 85 145 85 101z m-284 -18 c6 -16 -122 -248 -163 -297 -25 -30 -75 -40 -88 -18 -7 11 158 296 183 317 21 16 61 15 68 -2z m1844 -15 c-5 -11 -15 -23 -20 -26 -14 -9 -12 19 2 33 19 19 30 14 18 -7z m-2039 -7 c14 -17 -1 -51 -99 -224 -43 -77 -51 -85 -80 -88 -29 -3 -32 -1 -32 25 0 43 162 303 189 303 5 0 14 -7 22 -16z m-161 -16 c0 -6 -34 -73 -77 -147 -96 -171 -124 -205 -139 -166 -3 8 17 52 44 97 27 46 69 116 91 156 30 51 48 72 61 72 11 0 20 -5 20 -12z m1910 -1 c0 -19 -63 -104 -67 -91 -2 6 8 32 23 57 25 46 44 60 44 34z m-2057 -16 c5 -20 -22 -70 -118 -215 -63 -96 -76 -109 -107 -104 -31 4 -26 27 21 103 21 33 57 96 81 140 24 44 48 83 54 87 22 15 64 8 69 -11z m-175 -17 c3 -21 -147 -269 -179 -296 -23 -19 -59 -24 -59 -8 0 20 185 319 200 323 24 7 35 2 38 -19z m2101 -3 c-11 -30 -48 -75 -56 -68 -5 5 22 63 39 85 18 22 27 13 17 -17z m-2249 -5 c0 -15 -152 -279 -178 -308 -18 -21 -62 -24 -62 -5 0 11 120 219 176 305 16 25 64 31 64 8z m2129 -15 c-11 -30 -49 -72 -49 -53 0 19 21 66 33 74 22 14 26 8 16 -21z m341 22 c0 -5 -4 -15 -10 -23 -11 -18 -25 -7 -17 15 6 15 27 21 27 8z m-2614 -16 c2 -7 -19 -50 -48 -94 -29 -45 -74 -116 -101 -157 -33 -53 -54 -76 -67 -76 -28 0 -25 24 9 73 15 23 50 80 76 127 27 47 57 97 67 113 20 28 55 36 64 14z m-151 -46 c-52 -98 -176 -288 -194 -297 -29 -15 -71 -6 -71 15 0 21 127 223 174 278 36 42 71 57 93 40 10 -7 9 -15 -2 -36z m2165 43 c0 -13 -53 -94 -61 -94 -14 0 -11 10 16 57 22 37 45 56 45 37z m130 -5 c0 -15 -42 -89 -50 -89 -21 0 -13 55 13 88 12 15 37 16 37 1z m-4840 -13 c0 -8 -12 -24 -26 -35 -30 -23 -306 -114 -332 -109 -40 8 4 72 57 84 14 3 71 21 126 39 108 37 175 45 175 21z m2349 -5 c18 -12 12 -27 -69 -170 -38 -68 -70 -127 -70 -131 0 -3 -11 -17 -24 -29 -18 -17 -32 -22 -50 -17 -15 3 -26 11 -26 18 0 30 195 338 213 338 7 0 18 -4 26 -9z m2221 -11 c0 -14 -43 -80 -52 -80 -14 0 -8 45 8 68 15 22 44 30 44 12z m-2462 -187 c-70 -117 -100 -159 -116 -161 -12 -2 -22 2 -22 8 0 18 152 289 178 317 21 23 25 24 39 10 14 -14 6 -31 -79 -174z m-62 144 c6 -16 -147 -309 -164 -315 -25 -8 -10 41 59 182 66 137 91 169 105 133z m-123 -14 c7 -12 -68 -169 -114 -240 -48 -73 -69 -86 -69 -43 0 43 -32 40 -59 -5 -19 -33 -39 -43 -54 -28 -4 3 3 21 14 40 60 97 70 143 30 143 -14 0 -33 -26 -72 -96 -51 -92 -71 -115 -87 -100 -7 7 118 257 150 298 14 19 18 20 32 9 10 -8 14 -21 11 -32 -11 -32 21 -22 52 18 21 25 35 34 47 30 14 -6 11 -17 -25 -87 -40 -79 -44 -110 -15 -110 16 0 36 30 91 138 33 65 56 86 68 65z m-359 -46 c-6 -23 -98 -209 -130 -264 -11 -18 -25 -35 -31 -38 -26 -9 -12 34 47 144 33 62 60 116 60 120 0 3 9 21 20 39 22 35 45 34 34 -1z m-124 0 c0 -42 -154 -321 -173 -314 -7 2 -11 13 -9 23 4 22 129 283 144 302 17 20 38 14 38 -11z m-130 -7 c0 -25 -152 -311 -163 -307 -16 6 -12 25 27 110 18 39 47 102 64 140 24 51 36 67 51 67 12 0 21 -5 21 -10z m-146 -8 c5 -9 -59 -164 -101 -247 -28 -53 -60 -82 -75 -67 -8 8 8 51 65 167 71 143 94 174 111 147z m-1177 -26 c-15 -44 -321 -166 -349 -138 -14 14 5 45 34 59 51 24 193 73 278 96 21 6 42 -3 37 -17z m1053 16 c0 -11 -149 -305 -161 -316 -5 -5 -11 -7 -14 -4 -6 6 128 292 147 316 12 14 28 16 28 4z m-240 -36 c0 -18 -127 -271 -145 -290 -40 -40 -28 5 37 142 39 81 75 153 81 159 11 15 27 8 27 -11z m108 -18 c-27 -82 -127 -278 -142 -278 -9 0 -16 2 -16 5 0 3 22 49 49 103 27 53 59 121 71 150 25 59 57 75 38 20z m-245 -1 c6 -16 -21 -80 -87 -204 -35 -68 -53 -93 -67 -93 -10 0 -19 3 -19 6 0 13 153 304 160 304 4 0 10 -6 13 -13z m-143 -37 c0 -14 -104 -226 -120 -245 -16 -20 -30 -19 -30 1 0 44 112 254 135 254 8 0 15 -5 15 -10z m-301 -125 c-29 -58 -62 -115 -73 -127 -36 -39 -29 0 15 80 23 42 53 99 66 126 17 34 27 46 35 38 7 -7 -5 -42 -43 -117z m131 38 c-45 -86 -56 -100 -67 -90 -11 12 63 148 92 169 20 15 15 -3 -25 -79z m-217 25 c-11 -18 -41 -72 -68 -120 -33 -60 -54 -88 -67 -88 -10 0 -18 2 -18 5 0 9 50 105 75 145 12 19 29 47 39 63 9 15 25 27 37 27 21 0 21 0 2 -32z m4230 17 c1 -6 -10 -11 -25 -13 -31 -4 -39 14 -10 21 23 6 33 4 35 -8z m-4535 -97 c-5 -14 -112 -58 -140 -58 -20 0 -24 15 -7 25 10 7 127 43 142 44 5 1 7 -4 5 -11z m-400 -85 c2 -8 -6 -13 -22 -13 -25 0 -33 10 -19 24 10 10 36 3 41 -11z m852 12 c0 -12 -24 -55 -31 -55 -16 0 -18 18 -3 38 13 19 34 30 34 17z"/>
<path d="M7732 8328 c-15 -18 1 -41 24 -36 23 4 26 41 3 46 -9 1 -21 -3 -27 -10z"/>
<path d="M7883 8324 c-4 -11 1 -22 13 -30 10 -7 29 -23 42 -36 19 -20 24 -21 32 -8 15 24 12 38 -17 65 -32 29 -61 32 -70 9z"/>
<path d="M7321 8298 c-79 -8 -103 -20 -84 -39 14 -14 121 -13 248 2 86 10 115 21 115 41 0 10 -168 8 -279 -4z"/>
<path d="M7020 8251 c0 -24 13 -33 34 -25 27 10 20 44 -9 44 -18 0 -25 -5 -25 -19z"/>
<path d="M6674 8245 c-10 -24 12 -42 34 -29 24 16 21 38 -6 42 -13 2 -25 -3 -28 -13z"/>
<path d="M6850 8245 c0 -8 9 -15 20 -15 11 0 20 7 20 15 0 8 -9 15 -20 15 -11 0 -20 -7 -20 -15z"/>
<path d="M6523 8243 c-21 -8 -15 -43 7 -43 11 0 20 7 20 15 0 8 0 18 1 22 1 10 -13 13 -28 6z"/>
<path d="M6310 8214 c-9 -10 -10 -18 -2 -26 12 -12 32 -2 32 17 0 21 -16 26 -30 9z"/>
<path d="M6120 8195 c-10 -11 -10 -19 -2 -27 15 -15 44 -2 40 19 -4 23 -22 27 -38 8z"/>
<path d="M5970 8185 c-9 -11 -10 -19 -3 -26 17 -17 48 -6 48 16 0 25 -28 31 -45 10z"/>
<path d="M5694 8169 c-3 -6 -2 -15 4 -21 13 -13 32 -2 32 18 0 16 -26 19 -36 3z"/>
<path d="M5482 8158 c-30 -30 -7 -46 46 -32 34 9 29 44 -6 44 -15 0 -33 -5 -40 -12z"/>
<path d="M5341 8147 c-6 -6 -11 -17 -11 -25 0 -19 44 -11 48 9 4 20 -22 31 -37 16z"/>
<path d="M7380 8149 c-58 -4 -177 -15 -265 -24 -88 -8 -180 -17 -205 -19 -25 -2 -101 -9 -170 -15 -338 -30 -463 -40 -555 -46 -55 -3 -118 -7 -140 -10 -65 -7 -144 -14 -430 -35 -258 -19 -503 -39 -740 -60 -60 -5 -182 -14 -270 -20 -88 -6 -185 -12 -215 -15 -30 -2 -100 -7 -155 -10 -55 -3 -170 -13 -255 -20 -85 -8 -245 -21 -355 -30 -740 -58 -805 -75 -879 -235 -35 -75 -27 -395 19 -850 15 -148 50 -525 65 -705 5 -55 11 -152 15 -215 3 -64 7 -127 9 -140 3 -14 7 -88 10 -165 4 -77 11 -203 16 -280 5 -77 12 -183 15 -235 3 -52 7 -106 9 -120 2 -14 7 -63 10 -110 16 -237 38 -526 46 -615 14 -145 19 -220 25 -405 6 -161 12 -245 35 -485 10 -112 39 -510 61 -845 15 -226 20 -254 47 -258 13 -2 24 3 28 12 3 8 1 72 -6 141 -12 128 -8 179 12 173 26 -9 45 -72 58 -188 11 -113 14 -121 36 -126 43 -11 47 0 39 126 -7 119 -3 136 28 124 10 -4 16 -32 21 -105 9 -129 17 -151 54 -147 l27 3 -3 96 c-4 100 6 139 33 139 11 0 15 -11 15 -37 1 -88 13 -158 28 -170 30 -24 40 1 35 91 -5 86 5 126 32 126 24 0 35 -35 35 -112 0 -81 8 -102 36 -96 17 3 20 15 24 102 4 80 8 101 22 110 13 8 23 8 35 0 14 -9 19 -28 21 -90 3 -102 8 -124 30 -124 35 0 42 21 42 120 0 101 7 120 45 120 31 0 45 -19 45 -61 0 -20 3 -64 6 -97 5 -48 11 -63 26 -68 40 -12 49 12 46 124 -3 91 -1 106 15 116 12 8 22 8 35 0 18 -11 27 -48 37 -146 6 -56 20 -74 45 -58 9 6 13 39 14 116 l1 109 39 3 c21 2 43 -1 49 -7 6 -6 14 -54 17 -106 7 -101 18 -127 48 -109 14 9 17 30 20 127 3 114 3 117 27 123 49 12 62 -1 69 -74 3 -37 6 -84 6 -105 0 -26 5 -40 16 -44 30 -11 41 21 36 102 -5 87 1 120 24 129 31 12 54 -12 54 -58 0 -24 3 -71 6 -105 6 -56 9 -62 28 -59 20 3 21 10 24 112 1 63 8 116 14 123 6 8 25 13 42 11 27 -3 32 -7 38 -43 4 -22 7 -73 7 -113 1 -56 5 -74 17 -79 29 -11 37 14 36 118 -2 123 7 139 74 139 24 0 45 -4 48 -8 3 -5 6 -48 7 -97 2 -107 10 -139 34 -143 29 -6 35 17 35 135 0 104 2 113 21 123 11 7 31 9 44 6 21 -5 23 -12 30 -122 5 -87 11 -117 22 -121 28 -11 35 14 34 120 -2 115 5 131 56 125 l28 -3 3 -104 c3 -108 13 -141 38 -120 10 8 14 40 14 118 0 58 4 112 9 119 10 17 81 26 101 13 11 -8 16 -38 20 -122 3 -62 10 -114 15 -116 6 -1 17 2 25 7 12 7 14 29 12 113 -3 114 6 137 52 137 36 0 43 -17 51 -127 6 -90 10 -103 25 -103 25 0 30 19 30 116 0 106 8 124 59 124 l38 0 9 -112 c5 -61 14 -113 19 -115 6 -1 17 2 25 7 12 7 14 28 12 100 -1 50 2 99 8 110 13 24 70 36 99 21 19 -10 21 -21 21 -91 0 -43 4 -90 10 -105 8 -22 13 -24 30 -15 18 10 20 21 20 114 0 113 2 116 60 116 41 0 50 -24 50 -124 0 -87 9 -108 36 -85 13 11 14 28 9 104 -8 102 0 119 52 113 33 -4 40 -26 42 -126 1 -47 5 -64 17 -69 25 -9 33 15 32 102 -1 45 2 86 6 93 6 10 73 18 77 10 1 -2 4 -50 8 -108 5 -96 8 -105 26 -105 18 0 20 7 22 90 4 119 7 131 40 140 47 11 63 -21 63 -126 0 -82 1 -89 20 -89 15 0 20 7 21 28 1 15 3 36 4 47 1 11 2 46 3 77 2 62 19 82 59 72 18 -5 21 -17 27 -97 8 -102 25 -137 46 -96 9 15 11 47 6 99 -7 89 1 103 56 98 l33 -3 1 -85 c2 -112 1 -110 23 -110 27 0 29 5 32 95 3 96 10 111 49 120 62 14 69 4 72 -102 3 -79 6 -98 21 -107 28 -17 36 9 34 105 -2 101 7 119 64 119 44 0 46 -4 48 -104 2 -79 13 -101 42 -85 17 9 18 18 13 84 -8 94 9 128 59 123 l32 -3 5 -97 c5 -101 9 -114 35 -105 12 5 15 25 15 101 l0 95 33 9 c58 16 67 3 67 -98 0 -88 0 -90 24 -90 30 0 36 20 36 121 0 62 3 78 16 83 32 12 44 -13 44 -89 0 -82 6 -105 25 -105 23 0 28 19 26 102 -2 89 6 108 51 108 34 0 35 -3 42 -99 5 -81 16 -102 44 -85 14 9 17 27 18 91 0 43 4 85 8 91 4 7 25 12 46 12 44 0 45 -2 56 -103 4 -46 11 -70 21 -74 28 -11 38 16 38 104 l0 87 33 7 c48 10 59 -7 61 -93 2 -80 11 -99 39 -82 14 10 16 25 13 103 -3 84 -1 95 19 116 32 34 60 23 60 -24 0 -86 13 -173 27 -178 31 -12 37 15 35 156 -3 126 -1 142 19 185 13 25 26 46 30 46 12 0 19 -95 16 -230 l-2 -125 26 -3 c46 -5 52 31 45 256 -13 379 -39 780 -61 927 -2 17 -7 59 -10 95 -9 106 -16 183 -20 220 -5 39 -32 416 -40 555 -12 216 -26 431 -30 445 -2 8 -7 60 -10 115 -10 160 -23 319 -39 470 -8 77 -17 169 -20 205 -3 36 -13 130 -21 210 -8 80 -24 240 -35 355 -27 284 -30 314 -35 355 -6 42 -34 333 -40 410 -13 155 -15 190 -21 250 -12 143 -37 338 -49 394 -15 64 -44 112 -90 148 -27 21 -40 23 -160 25 -71 0 -177 -3 -235 -8z m-134 -224 c10 -14 22 -144 45 -515 11 -175 20 -208 54 -180 14 11 16 27 11 89 -10 138 -17 244 -26 421 -9 170 -9 175 12 193 29 24 129 24 151 -1 17 -19 37 -152 37 -248 0 -55 17 -81 46 -70 14 5 15 20 10 114 -4 59 -9 121 -11 137 -3 17 1 39 8 49 29 39 115 -27 138 -107 17 -59 48 -297 63 -492 4 -44 9 -100 11 -125 3 -25 12 -135 20 -245 8 -110 19 -247 25 -305 8 -91 28 -314 45 -515 3 -33 12 -125 20 -205 34 -347 45 -477 55 -660 6 -107 13 -202 15 -210 2 -8 7 -69 10 -135 3 -66 8 -138 10 -160 14 -119 67 -979 71 -1150 4 -209 -3 -272 -37 -353 -19 -44 -64 -102 -79 -102 -4 0 -10 64 -13 143 -3 78 -10 207 -16 287 -6 80 -20 287 -31 460 -11 173 -23 349 -26 390 -2 41 -11 167 -19 280 -8 113 -17 246 -20 295 -4 50 -15 196 -26 325 -61 726 -81 951 -99 1100 -11 91 -24 206 -30 255 -13 113 -17 125 -40 125 -24 0 -30 -18 -20 -71 5 -24 13 -102 19 -174 7 -71 16 -164 21 -205 5 -41 12 -118 15 -170 4 -52 8 -102 10 -110 2 -8 7 -58 10 -110 3 -52 8 -108 11 -125 2 -16 15 -174 29 -350 13 -176 27 -349 29 -385 3 -36 8 -108 11 -160 3 -52 8 -111 10 -130 2 -19 6 -84 10 -145 10 -178 16 -268 20 -305 2 -19 7 -93 10 -165 4 -71 8 -148 10 -170 2 -22 7 -121 10 -220 6 -179 7 -199 25 -370 5 -49 9 -144 10 -211 1 -141 -3 -148 -93 -164 -74 -14 -94 -4 -101 53 -8 63 -24 275 -32 422 -3 72 -8 137 -9 145 -2 8 -6 53 -10 100 -10 131 -33 272 -45 284 -8 8 -15 7 -23 -5 -10 -13 -10 -57 0 -195 6 -99 14 -226 18 -284 3 -58 10 -163 15 -235 22 -312 22 -293 1 -305 -23 -12 -156 -19 -166 -8 -4 4 -10 31 -14 60 -5 44 -9 53 -26 53 -14 0 -21 -8 -23 -25 -10 -98 -24 -110 -117 -110 -87 0 -85 -4 -86 129 -2 147 -7 175 -37 179 -26 4 -24 16 -22 -166 l2 -142 -37 -16 c-20 -8 -51 -14 -69 -12 -38 4 -41 17 -54 195 -8 123 -20 157 -49 146 -13 -5 -14 -20 -9 -92 12 -168 10 -241 -7 -259 -21 -20 -131 -30 -142 -12 -8 14 -17 126 -40 535 -15 264 -25 401 -44 609 -9 90 -23 119 -48 93 -12 -13 -10 -62 21 -512 8 -121 18 -310 21 -420 3 -110 8 -220 10 -245 7 -68 -6 -80 -104 -93 -74 -10 -85 -9 -96 6 -8 11 -14 87 -19 224 -3 115 -9 244 -12 288 -3 44 -9 121 -13 170 -5 81 -8 90 -26 90 -19 0 -20 -6 -19 -170 0 -93 4 -265 8 -381 8 -204 8 -212 -11 -231 -24 -24 -137 -41 -157 -24 -8 7 -15 52 -20 123 -23 383 -55 761 -64 770 -6 6 -18 8 -27 4 -14 -5 -16 -16 -11 -68 10 -96 36 -651 36 -750 0 -54 -4 -89 -11 -94 -7 -4 -42 -9 -80 -12 -65 -4 -68 -4 -73 19 -3 13 -12 137 -22 274 -17 263 -25 298 -60 263 -14 -14 -14 -36 -5 -198 6 -101 11 -223 11 -272 l0 -89 -35 -15 c-19 -7 -59 -14 -90 -14 -48 0 -57 3 -65 23 -5 12 -16 120 -23 240 -14 220 -23 262 -50 226 -9 -11 -10 -55 -6 -155 4 -76 7 -181 8 -232 l1 -93 -35 -15 c-19 -7 -54 -14 -79 -14 -48 0 -56 10 -56 81 0 23 -6 39 -15 43 -19 7 -35 -23 -35 -68 0 -53 -28 -76 -90 -76 -43 0 -52 3 -59 23 -4 12 -13 105 -20 207 -29 467 -54 766 -64 776 -3 4 -14 4 -23 0 -15 -6 -16 -17 -10 -89 21 -280 46 -717 46 -828 0 -66 -4 -90 -16 -100 -23 -19 -117 -24 -131 -8 -6 8 -16 96 -23 204 -38 607 -32 550 -58 553 l-23 4 6 -134 c3 -73 10 -205 15 -293 12 -200 12 -316 1 -334 -9 -14 -91 -30 -123 -23 -23 4 -25 17 -33 162 -3 69 -10 188 -15 265 -6 77 -10 150 -10 163 0 17 -6 22 -24 22 -13 0 -26 -6 -28 -12 -2 -7 -1 -65 3 -128 4 -63 10 -194 14 -292 7 -171 6 -177 -13 -187 -23 -12 -117 -19 -127 -9 -4 3 -9 48 -11 100 -3 51 -14 208 -24 348 -11 140 -22 291 -26 335 -8 112 -11 125 -34 125 -18 0 -20 -7 -20 -82 1 -46 5 -144 10 -218 6 -74 12 -191 15 -260 15 -370 15 -347 -4 -364 -23 -21 -68 -21 -79 2 -5 9 -13 98 -17 197 -10 252 -14 279 -43 283 l-23 4 6 -149 c3 -81 8 -186 10 -232 5 -97 -4 -121 -44 -121 l-28 0 -7 123 c-31 565 -37 610 -75 573 -13 -14 -13 -41 2 -263 10 -137 17 -287 17 -335 0 -78 -2 -88 -22 -102 -28 -20 -102 -21 -121 -2 -10 11 -16 60 -21 193 -4 98 -9 192 -11 208 -1 17 -6 85 -10 152 -3 67 -8 132 -10 145 -2 13 -6 70 -9 128 -6 95 -17 244 -31 405 -3 33 -14 177 -25 320 -11 143 -22 283 -25 310 -12 124 -16 175 -30 405 -23 360 -34 500 -40 511 -8 12 -32 12 -40 -1 -3 -6 -1 -117 4 -248 17 -360 20 -405 61 -847 40 -428 56 -642 79 -1070 25 -455 29 -611 16 -624 -6 -6 -32 -14 -58 -17 -42 -6 -47 -5 -56 17 -5 13 -19 139 -31 279 -54 645 -81 875 -145 1215 -46 248 -95 647 -95 783 0 49 -4 64 -16 69 -22 8 -44 -22 -38 -50 2 -12 9 -94 14 -182 15 -216 43 -442 84 -670 87 -483 118 -776 132 -1226 l7 -206 -23 -21 c-23 -21 -64 -30 -73 -14 -3 4 -8 77 -11 162 -8 175 -24 391 -32 433 -4 19 -11 27 -22 25 -13 -3 -17 -14 -16 -48 0 -25 3 -137 6 -250 4 -195 -1 -312 -14 -326 -4 -3 -16 -3 -27 1 -19 6 -21 14 -21 88 0 111 -20 636 -26 665 -4 17 -10 22 -27 20 -26 -4 -26 -9 -13 -415 9 -284 4 -353 -25 -353 -37 0 -46 37 -53 215 -3 94 -15 276 -26 405 -19 235 -23 312 -40 869 -9 299 -12 317 -48 304 -12 -5 -13 -59 -8 -377 4 -204 11 -432 16 -506 5 -74 12 -218 16 -320 3 -102 8 -187 9 -190 2 -3 7 -78 10 -166 8 -168 2 -199 -29 -151 -19 29 -52 161 -60 242 -18 183 -28 326 -36 550 -11 288 -24 497 -45 710 -9 83 -17 170 -20 195 -2 25 -7 88 -10 140 -3 52 -10 136 -15 185 -5 50 -12 135 -15 190 -3 55 -12 156 -20 225 -8 69 -17 163 -20 210 -3 47 -8 110 -10 140 -5 58 -11 161 -20 350 -4 63 -15 212 -25 330 -51 567 -82 1002 -78 1090 2 59 6 75 18 75 9 0 16 -11 18 -30 6 -70 44 -402 48 -422 2 -13 12 -23 21 -23 14 0 15 15 9 148 -3 81 -9 194 -13 252 -12 188 -11 205 13 208 28 4 25 32 80 -663 15 -199 25 -238 54 -220 8 5 10 24 6 59 -3 28 -8 128 -11 221 -5 175 -10 283 -21 487 -6 118 -2 168 16 168 25 0 34 -46 55 -305 3 -38 8 -90 10 -115 3 -25 11 -110 19 -190 8 -80 20 -221 27 -313 12 -165 25 -215 48 -192 8 8 8 52 1 145 -14 212 -29 463 -35 605 -3 72 -8 185 -11 251 -5 90 -3 123 6 129 20 13 40 -19 45 -71 6 -69 33 -383 41 -482 4 -52 12 -88 21 -97 26 -26 36 -6 29 59 -3 33 -6 144 -7 246 -1 102 -5 220 -8 263 -3 42 -4 82 -3 87 6 18 51 11 62 -10 39 -73 71 -525 76 -1075 5 -505 7 -545 34 -545 10 0 21 7 24 16 9 25 7 736 -4 869 -5 66 -11 192 -15 280 -5 156 -8 207 -21 387 -6 79 -5 87 14 97 15 8 23 7 32 -4 13 -15 28 -129 33 -249 1 -44 7 -71 15 -74 12 -4 14 24 13 235 0 80 2 94 18 103 13 7 22 6 29 -3 12 -14 28 -133 37 -267 8 -135 16 -238 20 -290 2 -25 9 -200 16 -390 11 -348 16 -385 49 -365 12 7 8 241 -10 655 -5 113 -12 309 -16 436 l-7 232 22 7 c34 11 70 -2 75 -28 3 -12 12 -110 21 -217 38 -457 37 -450 61 -450 17 0 19 122 4 320 -25 350 -25 355 1 374 53 37 76 18 89 -74 16 -118 68 -654 74 -770 4 -58 9 -132 11 -165 10 -135 15 -215 20 -315 4 -58 12 -179 20 -270 8 -91 17 -201 20 -245 8 -97 12 -115 30 -115 18 0 24 21 20 72 -5 56 -22 319 -41 628 -8 135 -17 270 -19 300 -2 30 -9 118 -15 195 -11 151 -19 244 -25 315 -14 154 -20 269 -20 365 l0 110 29 3 c16 2 32 0 37 -5 8 -8 39 -257 39 -318 0 -50 16 -86 35 -79 14 6 15 27 10 173 -3 91 -8 178 -10 193 -5 34 17 58 55 58 36 0 34 9 60 -360 15 -228 23 -297 35 -309 33 -34 35 0 19 334 l-16 329 21 17 c12 10 29 16 39 14 9 -2 22 -4 29 -4 18 -1 30 -55 43 -191 6 -69 16 -158 21 -198 5 -40 9 -95 9 -121 0 -32 5 -53 15 -61 30 -25 35 1 25 115 -6 61 -14 184 -20 275 -9 161 -9 165 11 183 25 20 72 23 87 5 5 -7 12 -39 14 -71 5 -59 18 -80 48 -74 11 2 15 18 16 70 1 74 6 82 45 92 50 12 53 -2 78 -296 12 -151 26 -317 31 -369 5 -52 12 -157 16 -233 7 -135 16 -167 45 -167 14 0 14 30 -1 215 -6 66 -19 255 -30 420 -11 165 -22 324 -25 353 -5 46 -2 56 19 77 46 46 129 29 140 -28 18 -88 87 -869 86 -974 0 -27 29 -58 42 -45 10 10 1 197 -22 492 -20 255 -33 517 -27 541 4 14 18 31 32 37 35 16 93 15 110 -2 13 -13 51 -291 64 -471 5 -68 9 -80 25 -83 18 -4 18 1 12 64 -3 38 -9 164 -13 279 -7 234 -7 232 60 237 51 3 65 -15 72 -92 20 -208 19 -205 38 -208 16 -3 17 7 16 138 -1 158 1 164 61 175 58 10 69 -6 80 -115 6 -52 12 -111 15 -130 2 -19 7 -79 11 -133 7 -94 22 -134 43 -111 4 5 3 114 -2 242 -9 207 -9 235 5 248 21 21 56 10 63 -19 4 -21 18 -183 32 -367 3 -47 7 -87 9 -89 2 -2 11 -1 20 3 17 7 17 75 -2 378 -7 106 0 128 41 128 34 0 43 -18 50 -100 4 -41 8 -77 10 -80 2 -3 6 -79 10 -170 4 -91 8 -167 10 -170 2 -3 6 -75 10 -160 3 -85 10 -191 15 -235 8 -70 17 -201 35 -504 4 -84 14 -105 43 -94 17 7 13 128 -18 513 -10 129 -22 289 -25 355 -4 66 -10 170 -14 230 -5 61 -9 176 -10 256 -2 164 -1 168 68 174 74 7 73 9 106 -361 8 -81 16 -100 40 -90 15 5 17 15 11 64 -10 103 -19 339 -13 364 4 13 18 30 32 36 36 17 100 15 115 -3 7 -8 19 -59 27 -112 22 -146 21 -143 45 -143 20 0 21 2 14 120 -7 119 -7 120 18 145 21 20 35 25 79 25 78 0 84 -10 97 -164 5 -70 12 -132 16 -137 10 -16 44 -10 45 9 1 9 0 76 -1 147 -2 152 0 156 86 163 77 6 90 -8 99 -106 8 -84 18 -112 40 -112 12 0 15 18 15 94 0 107 12 132 70 146 47 10 113 3 126 -15z"/>
<path d="M6997 7547 c-63 -15 -80 -53 -153 -343 -69 -275 -85 -375 -64 -413 19 -37 69 -51 160 -47 69 4 84 2 100 -14 20 -20 36 -103 46 -243 5 -74 11 -104 26 -122 22 -28 63 -33 92 -12 17 13 18 25 10 173 -4 87 -8 164 -9 169 -2 16 23 62 50 91 36 39 30 72 -19 104 -51 35 -55 44 -62 141 -20 290 -36 455 -47 468 -34 45 -78 61 -130 48z m41 -456 c3 -194 -1 -204 -77 -199 -44 3 -46 4 -49 36 -4 39 39 212 70 283 14 34 26 49 37 47 14 -3 16 -26 19 -167z"/>
<path d="M7552 7518 c-17 -17 -15 -32 6 -51 31 -28 44 -21 40 20 -3 40 -23 54 -46 31z"/>
<path d="M4771 7506 c-8 -10 -8 -55 0 -162 14 -188 15 -196 37 -192 15 3 17 17 14 128 -1 69 -5 148 -8 177 -5 53 -23 73 -43 49z"/>
<path d="M6537 7483 c-4 -3 -7 -46 -7 -93 0 -92 12 -119 46 -106 14 5 15 18 10 89 -4 45 -9 90 -12 100 -5 17 -25 23 -37 10z"/>
<path d="M5601 7380 c-17 -10 -7 -40 14 -40 8 0 15 9 15 19 0 24 -12 32 -29 21z"/>
<path d="M6304 7316 c-9 -24 0 -51 19 -54 15 -3 18 2 15 29 -3 35 -24 51 -34 25z"/>
<path d="M7577 7313 c-12 -12 -7 -40 9 -54 14 -11 18 -10 30 5 22 30 -14 75 -39 49z"/>
<path d="M5810 7210 c0 -11 6 -20 13 -20 19 0 27 10 20 26 -8 21 -33 17 -33 -6z"/>
<path d="M6557 7193 c-15 -15 -7 -43 13 -43 15 0 20 7 20 25 0 24 -18 34 -33 18z"/>
<path d="M6314 7133 c-8 -30 5 -56 30 -61 13 -3 16 5 16 42 0 39 -3 46 -20 46 -13 0 -22 -9 -26 -27z"/>
<path d="M5430 7069 c0 -24 23 -21 28 4 2 10 -3 17 -12 17 -10 0 -16 -9 -16 -21z"/>
<path d="M5812 7078 c5 -15 28 -18 29 -3 0 6 -7 12 -17 13 -10 3 -15 -1 -12 -10z"/>
<path d="M7584 7076 c-9 -24 4 -48 23 -44 12 2 18 12 18 28 0 29 -32 41 -41 16z"/>
<path d="M7340 7056 c0 -24 23 -41 41 -30 5 3 9 16 9 30 0 19 -5 24 -25 24 -20 0 -25 -5 -25 -24z"/>
<path d="M4630 7004 c-9 -10 -10 -18 -2 -26 12 -12 32 -2 32 17 0 21 -16 26 -30 9z"/>
<path d="M6334 6946 c-9 -24 0 -51 19 -54 14 -3 17 4 17 32 0 26 -4 36 -15 36 -9 0 -18 -6 -21 -14z"/>
<path d="M6570 6940 c-10 -6 -11 -31 -6 -106 6 -91 39 -528 51 -684 2 -36 10 -143 16 -239 11 -189 19 -224 47 -219 13 3 17 13 17 43 -1 48 -12 235 -25 400 -5 66 -12 158 -15 205 -3 47 -12 171 -20 275 -8 105 -17 219 -20 255 -2 36 -5 66 -5 66 -1 8 -30 10 -40 4z"/>
<path d="M4452 6928 c6 -18 28 -21 28 -4 0 9 -7 16 -16 16 -9 0 -14 -5 -12 -12z"/>
<path d="M3976 6874 c-21 -20 -16 -39 10 -39 21 0 32 31 16 47 -6 6 -15 3 -26 -8z"/>
<path d="M5685 6860 c-130 -7 -186 -24 -205 -61 -9 -15 -10 -50 -6 -108 11 -157 36 -434 52 -581 9 -80 16 -219 17 -310 3 -231 -7 -253 -130 -285 -83 -22 -315 -38 -364 -25 -61 17 -88 47 -99 110 -8 47 -28 307 -45 575 -8 122 -16 238 -20 262 -2 12 -6 63 -10 115 -16 227 -16 227 -225 210 -148 -12 -172 -19 -192 -55 -22 -40 -10 -339 32 -757 11 -113 38 -476 46 -610 3 -52 7 -104 9 -115 2 -11 7 -78 10 -150 3 -71 15 -238 25 -370 11 -132 24 -350 30 -485 7 -135 16 -260 21 -277 24 -75 74 -86 275 -58 143 20 143 20 164 68 21 47 22 26 -16 522 -27 351 -28 524 -4 563 8 13 29 32 45 42 69 42 298 65 401 39 73 -19 96 -63 114 -217 24 -216 50 -569 51 -697 0 -123 12 -169 49 -197 23 -17 44 -19 177 -19 83 1 162 5 176 10 13 5 34 22 47 38 19 24 21 36 16 88 -18 189 -27 297 -41 495 -3 36 -7 97 -10 135 -3 39 -12 169 -20 290 -8 121 -17 229 -19 240 -4 20 -14 165 -41 610 -23 369 -26 407 -30 455 -2 25 -9 115 -15 200 -18 253 -19 256 -46 283 -21 21 -72 41 -93 35 -3 0 -60 -4 -126 -8z m-31 -176 c21 -20 20 -37 -2 -64 -33 -40 -84 -3 -67 49 5 17 18 25 47 30 4 0 14 -6 22 -15z m161 -24 c0 -31 -3 -35 -25 -35 -20 0 -26 6 -28 29 -4 30 12 48 38 43 10 -1 15 -14 15 -37z m-1084 -80 c36 -20 13 -76 -28 -68 -22 4 -29 43 -13 64 15 17 16 17 41 4z m-123 -39 c-2 -19 -10 -27 -27 -29 -41 -6 -57 43 -18 57 32 12 49 2 45 -28z m1216 -17 c29 -28 12 -64 -30 -64 -30 0 -43 49 -18 67 23 17 29 16 48 -3z m-156 -26 c31 -31 3 -82 -40 -76 -18 2 -24 10 -26 36 -3 26 1 34 20 41 31 13 32 13 46 -1z m-1049 -75 c13 -25 -4 -53 -33 -53 -33 0 -41 35 -13 55 27 19 34 19 46 -2z m141 2 c10 -12 10 -18 0 -30 -24 -28 -62 -10 -53 26 6 23 36 25 53 4z m1088 -67 c17 -17 15 -63 -2 -77 -31 -26 -79 31 -62 74 7 18 47 20 64 3z m-158 -41 c0 -33 -15 -49 -41 -45 -30 4 -38 42 -14 69 22 23 55 9 55 -24z m-920 -18 c9 -15 8 -24 -1 -35 -26 -32 -77 -4 -64 36 9 27 51 27 65 -1z m-150 -18 c0 -19 -23 -35 -34 -24 -14 15 -5 43 14 43 13 0 20 -7 20 -19z m1085 -97 c20 -20 16 -53 -7 -68 -37 -23 -76 35 -48 70 16 18 35 18 55 -2z m-1077 -17 c4 -20 -25 -34 -40 -19 -15 15 -1 44 19 40 10 -2 19 -11 21 -21z m1227 7 c18 -18 16 -33 -7 -47 -35 -22 -66 21 -36 51 16 16 23 15 43 -4z m-1084 -10 c23 -21 14 -44 -17 -44 -26 0 -40 20 -30 45 7 19 25 19 47 -1z m-126 -124 c12 -20 -6 -50 -30 -50 -29 0 -38 13 -30 40 7 21 49 28 60 10z m140 -30 c0 -9 -11 -16 -27 -18 -30 -4 -31 -2 -22 23 8 20 49 16 49 -5z m929 7 c11 -8 17 -23 14 -38 -2 -19 -10 -25 -35 -27 -28 -3 -33 0 -39 24 -5 20 -2 31 11 41 23 16 27 16 49 0z m162 -2 c7 -18 -13 -45 -33 -45 -17 0 -27 24 -19 45 7 20 45 19 52 0z m-1221 -160 c0 -21 -5 -31 -19 -33 -26 -5 -40 12 -32 43 5 20 12 26 29 23 17 -2 22 -10 22 -33z m145 10 c0 -8 -7 -15 -15 -15 -8 0 -15 7 -15 15 0 8 7 15 15 15 8 0 15 -7 15 -15z m1078 -9 c2 -10 -1 -23 -8 -30 -17 -17 -44 22 -28 41 14 17 32 12 36 -11z m-140 -28 c-2 -27 -8 -34 -30 -36 -19 -2 -28 2 -33 18 -9 27 11 50 42 50 21 0 24 -4 21 -32z m-1070 -129 c4 -19 -27 -34 -41 -20 -14 14 0 43 20 39 10 -2 19 -10 21 -19z m28 -144 c7 -18 -13 -45 -33 -45 -17 0 -27 24 -19 45 7 20 45 19 52 0z m1049 -11 c0 -10 -8 -20 -18 -22 -22 -4 -35 27 -16 39 20 12 34 5 34 -17z m-1047 -151 c-5 -26 -38 -29 -38 -4 0 15 6 21 21 21 14 0 19 -5 17 -17z m1068 -15 c9 -15 -27 -41 -39 -29 -13 13 -1 41 17 41 8 0 18 -5 22 -12z m-1068 -155 c-5 -26 -38 -29 -38 -4 0 15 6 21 21 21 14 0 19 -5 17 -17z m22 -158 c0 -8 -9 -15 -20 -15 -11 0 -20 7 -20 15 0 8 9 15 20 15 11 0 20 -7 20 -15z m10 -134 c18 -34 -10 -68 -45 -55 -18 7 -20 45 -3 62 18 18 36 15 48 -7z m130 -36 c0 -8 -7 -15 -15 -15 -16 0 -20 12 -8 23 11 12 23 8 23 -8z m-112 -157 c3 -22 -2 -29 -22 -34 -30 -7 -46 1 -46 25 0 46 63 55 68 9z m1042 -13 c0 -7 -7 -18 -16 -25 -12 -11 -18 -11 -30 2 -14 14 -14 17 1 31 17 18 45 13 45 -8z m139 -131 c-16 -19 -29 -17 -29 4 0 26 11 34 27 21 10 -9 10 -15 2 -25z m-124 -19 c0 -13 -8 -21 -22 -23 -17 -3 -23 2 -23 16 0 10 3 22 7 26 13 13 38 1 38 -19z m-1037 -24 c6 -41 -51 -58 -64 -19 -4 15 -1 25 12 35 26 19 48 12 52 -16z m1055 -117 c3 -4 2 -15 -4 -25 -11 -21 -49 -26 -49 -6 0 26 37 47 53 31z m-1043 -38 c0 -16 -21 -36 -37 -36 -17 0 -17 47 0 53 17 6 37 -3 37 -17z m15 -162 c0 -12 -8 -20 -22 -22 -25 -4 -31 16 -11 36 17 17 33 10 33 -14z"/>
<path d="M3030 6840 c-12 -7 -12 -12 -2 -22 9 -9 15 -9 24 0 16 16 -2 34 -22 22z"/>
<path d="M3413 6833 c-20 -7 -17 -112 3 -120 23 -9 31 10 27 64 -4 51 -11 63 -30 56z"/>
<path d="M6352 6759 c2 -6 8 -10 13 -10 5 0 11 4 13 10 2 6 -4 11 -13 11 -9 0 -15 -5 -13 -11z"/>
<path d="M3977 6713 c-4 -3 -7 -17 -7 -30 0 -16 6 -23 20 -23 16 0 20 7 20 30 0 28 -17 40 -33 23z"/>
<path d="M3411 6630 c-16 -9 -6 -30 15 -30 15 0 20 25 6 34 -4 2 -14 1 -21 -4z"/>
<path d="M5242 6573 c4 -36 33 -39 33 -3 0 16 -6 26 -18 28 -15 3 -18 -2 -15 -25z"/>
<path d="M5010 6575 c-15 -18 -6 -45 15 -45 9 0 15 9 15 24 0 31 -14 40 -30 21z"/>
<path d="M3993 6533 c-16 -6 -17 -39 -2 -49 16 -9 43 21 36 40 -7 16 -13 18 -34 9z"/>
<path d="M7372 6438 c2 -13 10 -23 18 -23 8 0 16 10 18 23 3 17 -2 22 -18 22 -16 0 -21 -5 -18 -22z"/>
<path d="M6877 6429 c-10 -6 -15 -14 -12 -20 10 -14 45 -11 45 5 0 21 -12 26 -33 15z"/>
<path d="M5248 6385 c-3 -4 -4 -41 -1 -83 5 -80 22 -117 44 -95 18 18 -1 177 -21 181 -9 1 -19 0 -22 -3z"/>
<path d="M3312 6344 c4 -21 22 -23 26 -1 2 10 -3 17 -13 17 -10 0 -15 -6 -13 -16z"/>
<path d="M6882 6263 c2 -10 10 -18 18 -18 22 0 18 29 -3 33 -14 3 -18 -1 -15 -15z"/>
<path d="M7383 6264 c-7 -18 17 -38 31 -24 11 11 1 40 -14 40 -6 0 -13 -7 -17 -16z"/>
<path d="M6167 6213 c-13 -12 -7 -23 13 -23 11 0 20 7 20 15 0 15 -21 21 -33 8z"/>
<path d="M7150 6195 c0 -8 7 -15 15 -15 8 0 15 7 15 15 0 8 -7 15 -15 15 -8 0 -15 -7 -15 -15z"/>
<path d="M3808 6193 c-2 -4 -1 -100 2 -213 5 -197 6 -205 25 -205 19 0 20 8 23 155 3 184 -6 263 -30 268 -9 2 -18 -1 -20 -5z"/>
<path d="M3186 6171 c-6 -9 0 -122 24 -456 6 -77 13 -193 17 -258 6 -121 17 -155 47 -144 13 5 16 15 12 39 -3 18 -10 105 -16 193 -14 221 -40 565 -45 592 -6 39 -26 56 -39 34z"/>
<path d="M4034 6166 c-3 -8 -4 -29 -2 -48 2 -25 8 -34 26 -36 19 -3 22 1 22 28 0 53 -32 92 -46 56z"/>
<path d="M7395 6129 c-4 -12 -2 -26 3 -31 17 -17 42 -1 42 27 0 32 -35 35 -45 4z"/>
<path d="M5271 6106 c-14 -16 -4 -46 15 -46 8 0 14 10 14 24 0 30 -14 41 -29 22z"/>
<path d="M7146 6074 c-8 -20 11 -54 29 -54 10 0 15 11 15 35 0 28 -4 35 -19 35 -10 0 -22 -7 -25 -16z"/>
<path d="M7410 5969 c0 -25 33 -22 38 4 2 12 -3 17 -17 17 -15 0 -21 -6 -21 -21z"/>
<path d="M6920 5955 c0 -8 5 -15 10 -15 6 0 10 7 10 15 0 8 -4 15 -10 15 -5 0 -10 -7 -10 -15z"/>
<path d="M6402 5923 c4 -36 33 -39 33 -3 0 16 -6 26 -18 28 -15 3 -18 -2 -15 -25z"/>
<path d="M4050 5910 c0 -13 7 -20 20 -20 13 0 20 7 20 20 0 13 -7 20 -20 20 -13 0 -20 -7 -20 -20z"/>
<path d="M5292 5881 c-9 -5 -12 -26 -10 -62 3 -46 6 -54 23 -54 17 0 20 8 23 51 3 53 -12 80 -36 65z"/>
<path d="M6175 5713 c7 -168 16 -206 45 -188 9 6 11 29 6 84 -3 42 -7 112 -7 156 -3 101 -7 115 -31 115 -20 0 -20 -4 -13 -167z"/>
<path d="M6924 5855 c-9 -22 1 -226 26 -555 10 -140 21 -300 24 -355 15 -255 19 -285 33 -296 18 -15 32 -2 35 31 1 23 -8 177 -17 280 -2 25 -7 99 -10 165 -4 66 -11 167 -15 225 -5 58 -14 177 -20 265 -6 88 -14 180 -18 204 -7 46 -27 65 -38 36z"/>
<path d="M7414 5824 c-8 -31 10 -74 31 -74 11 0 15 12 15 50 0 43 -3 50 -20 50 -13 0 -22 -9 -26 -26z"/>
<path d="M3550 5765 c0 -42 2 -46 23 -43 19 3 22 9 22 43 0 34 -3 40 -22 43 -21 3 -23 -1 -23 -43z"/>
<path d="M4070 5775 c0 -8 7 -15 15 -15 8 0 15 7 15 15 0 8 -7 15 -15 15 -8 0 -15 -7 -15 -15z"/>
<path d="M7164 5655 c-7 -18 12 -45 32 -45 15 0 28 35 19 50 -9 15 -45 12 -51 -5z"/>
<path d="M7434 5658 c-8 -13 -7 -163 2 -273 3 -38 13 -186 23 -329 15 -229 20 -260 36 -272 51 -38 51 -37 0 511 -2 28 -7 120 -11 205 -3 85 -8 158 -11 163 -7 11 -31 8 -39 -5z"/>
<path d="M6422 5633 c2 -17 10 -29 21 -31 13 -3 17 3 17 27 0 25 -4 31 -21 31 -16 0 -20 -5 -17 -27z"/>
<path d="M4073 5634 c-7 -18 11 -39 26 -30 17 11 13 46 -4 46 -9 0 -18 -7 -22 -16z"/>
<path d="M5300 5636 c0 -8 4 -17 9 -20 11 -7 33 18 24 27 -12 12 -33 7 -33 -7z"/>
<path d="M3820 5601 c0 -11 5 -23 11 -27 14 -8 29 14 22 33 -8 20 -33 16 -33 -6z"/>
<path d="M4244 5589 c-10 -17 13 -36 27 -22 12 12 4 33 -11 33 -5 0 -12 -5 -16 -11z"/>
<path d="M3550 5575 c0 -9 5 -15 11 -13 6 2 11 8 11 13 0 5 -5 11 -11 13 -6 2 -11 -4 -11 -13z"/>
<path d="M6426 5461 c-4 -6 -1 -90 5 -187 9 -130 16 -177 26 -181 23 -9 27 4 24 100 -6 195 -15 272 -33 275 -9 2 -19 -1 -22 -7z"/>
<path d="M4092 5447 c-6 -7 -7 -63 -2 -147 13 -206 32 -320 55 -320 23 0 27 18 16 88 -5 37 -12 123 -16 192 -3 69 -8 139 -11 157 -5 34 -27 49 -42 30z"/>
<path d="M3554 5405 c-7 -17 4 -37 17 -30 12 8 12 45 -1 45 -6 0 -13 -7 -16 -15z"/>
<path d="M6194 5405 c-8 -21 2 -45 20 -45 15 0 25 27 19 48 -6 17 -32 15 -39 -3z"/>
<path d="M3550 5285 c-6 -8 -10 -43 -8 -87 3 -64 5 -73 22 -73 25 0 34 34 28 107 -4 58 -21 79 -42 53z"/>
<path d="M6207 5244 c-8 -8 1 -24 14 -24 5 0 9 7 9 15 0 15 -12 20 -23 9z"/>
<path d="M3266 5213 c-10 -11 -7 -72 5 -79 18 -11 42 22 35 49 -6 25 -28 41 -40 30z"/>
<path d="M6714 5089 c-8 -14 11 -33 25 -25 6 4 11 14 11 22 0 16 -26 19 -36 3z"/>
<path d="M6440 4970 c0 -5 5 -10 11 -10 5 0 7 5 4 10 -3 6 -8 10 -11 10 -2 0 -4 -4 -4 -10z"/>
<path d="M6725 4870 c-3 -10 -1 -37 5 -60 17 -62 50 -49 50 20 0 16 -3 35 -6 44 -9 22 -41 20 -49 -4z"/>
<path d="M3287 4803 c-15 -15 -7 -43 13 -43 15 0 20 7 20 25 0 24 -18 34 -33 18z"/>
<path d="M4160 4695 c0 -9 5 -15 11 -13 6 2 11 8 11 13 0 5 -5 11 -11 13 -6 2 -11 -4 -11 -13z"/>
<path d="M7502 4658 c-26 -26 -9 -68 28 -68 15 0 22 38 10 60 -12 23 -21 25 -38 8z"/>
<path d="M3297 4633 c-13 -12 -7 -33 8 -33 8 0 15 9 15 20 0 20 -11 26 -23 13z"/>
<path d="M7200 4505 l-23 -24 11 -148 c7 -82 14 -202 17 -268 3 -66 8 -162 11 -214 6 -116 -3 -131 -81 -131 -34 0 -57 5 -65 15 -8 9 -17 107 -26 291 -12 252 -27 414 -40 448 -8 20 -48 38 -74 34 -13 -1 -32 -15 -43 -30 -20 -27 -20 -29 -3 -390 21 -431 25 -463 66 -500 29 -27 34 -28 140 -28 132 0 144 -7 154 -94 9 -70 33 -96 88 -96 33 0 40 4 49 27 6 15 10 46 9 68 -4 92 -2 99 34 119 71 38 68 107 -6 155 -27 17 -39 33 -43 55 -4 27 -19 242 -41 584 -5 80 -11 108 -26 127 -26 34 -76 34 -108 0z"/>
<path d="M7522 4428 c-17 -17 -15 -73 3 -88 29 -24 46 -4 43 47 -3 50 -21 66 -46 41z"/>
<path d="M6584 4399 c-3 -6 0 -17 7 -25 18 -17 44 -2 36 20 -7 18 -33 21 -43 5z"/>
<path d="M5347 4373 c-5 -9 11 -412 18 -459 5 -30 30 -62 40 -53 7 8 7 69 0 249 -10 222 -15 264 -37 268 -9 2 -18 -1 -21 -5z"/>
<path d="M4163 4279 c-14 -14 -6 -39 12 -39 15 0 24 19 17 38 -5 15 -15 15 -29 1z"/>
<path d="M7526 4203 c-4 -9 -2 -21 3 -26 15 -15 46 -3 49 21 3 18 -1 22 -21 22 -14 0 -28 -7 -31 -17z"/>
<path d="M6344 4179 c-8 -14 11 -33 25 -25 6 4 11 14 11 22 0 16 -26 19 -36 3z"/>
<path d="M6352 4038 c2 -12 10 -23 18 -23 22 0 19 39 -3 43 -15 3 -18 -1 -15 -20z"/>
<path d="M4165 4040 c-8 -14 3 -30 21 -30 8 0 14 9 14 20 0 21 -24 28 -35 10z"/>
<path d="M4457 3904 c-14 -14 -7 -61 13 -79 18 -17 19 -16 25 8 10 37 2 71 -15 75 -9 1 -19 0 -23 -4z"/>
<path d="M6357 3894 c-21 -21 -2 -84 25 -84 16 0 19 6 16 42 -3 41 -22 60 -41 42z"/>
<path d="M4181 3851 c-11 -7 -11 -39 -3 -181 6 -94 13 -174 16 -177 3 -3 12 -3 21 0 11 5 15 20 15 54 -1 85 -20 297 -27 304 -5 5 -14 4 -22 0z"/>
<path d="M5384 3776 c-9 -22 2 -46 21 -46 12 0 15 8 13 27 -3 30 -25 42 -34 19z"/>
<path d="M3483 3773 c-17 -6 -17 -28 0 -41 19 -16 37 0 30 26 -5 23 -9 24 -30 15z"/>
<path d="M4325 3770 c-7 -12 -1 -193 11 -353 5 -56 11 -80 21 -84 21 -8 34 16 28 52 -3 17 -9 106 -15 200 -7 118 -15 174 -24 183 -10 11 -15 11 -21 2z"/>
<path d="M5852 3718 c5 -34 38 -37 38 -4 0 20 -5 26 -21 26 -15 0 -20 -5 -17 -22z"/>
<path d="M5384 3617 c-3 -8 -4 -51 -2 -97 2 -67 6 -85 21 -94 30 -18 39 10 33 102 -3 46 -8 88 -12 93 -8 14 -34 11 -40 -4z"/>
<path d="M5863 3584 c-7 -20 11 -38 31 -31 9 4 12 13 9 26 -6 25 -31 28 -40 5z"/>
<path d="M3476 3575 c-8 -23 4 -45 25 -45 14 0 19 7 19 30 0 23 -5 30 -19 30 -10 0 -21 -7 -25 -15z"/>
<path d="M4710 3570 c0 -13 7 -20 20 -20 13 0 20 7 20 20 0 13 -7 20 -20 20 -13 0 -20 -7 -20 -20z"/>
<path d="M5412 3054 c4 -21 22 -23 26 -1 2 10 -3 17 -13 17 -10 0 -15 -6 -13 -16z"/>
<path d="M7956 8121 c-9 -14 4 -41 19 -41 15 0 28 27 19 41 -3 5 -11 9 -19 9 -8 0 -16 -4 -19 -9z"/>
<path d="M5020 8100 c0 -28 30 -38 46 -15 17 23 9 35 -22 35 -17 0 -24 -5 -24 -20z"/>
<path d="M5180 8105 c0 -8 7 -15 15 -15 8 0 15 7 15 15 0 8 -7 15 -15 15 -8 0 -15 -7 -15 -15z"/>
<path d="M4835 8089 c-10 -30 9 -45 39 -31 18 8 23 16 19 31 -7 29 -49 28 -58 0z"/>
<path d="M4525 8070 c-4 -6 -1 -17 5 -25 16 -19 52 -2 44 20 -7 17 -40 20 -49 5z"/>
<path d="M4640 8060 c0 -15 7 -20 25 -20 18 0 25 5 25 20 0 15 -7 20 -25 20 -18 0 -25 -5 -25 -20z"/>
<path d="M3890 8039 c-101 -8 -155 -23 -145 -39 13 -22 250 -7 259 16 9 24 -19 30 -114 23z"/>
<path d="M4117 8044 c-15 -15 -7 -45 11 -42 9 2 17 12 17 22 0 20 -16 31 -28 20z"/>
<path d="M4285 8040 c-8 -14 3 -30 21 -30 8 0 14 9 14 20 0 21 -24 28 -35 10z"/>
<path d="M3510 8000 c-18 -11 -4 -42 17 -38 10 2 19 10 21 19 4 19 -19 31 -38 19z"/>
<path d="M3384 7986 c-8 -21 3 -36 27 -36 15 0 20 6 17 22 -4 27 -35 37 -44 14z"/>
<path d="M3067 7974 c-4 -4 -7 -20 -7 -36 0 -25 4 -29 23 -26 17 2 22 10 22 33 0 29 -22 45 -38 29z"/>
<path d="M2895 7956 c-25 -18 -13 -46 20 -46 30 0 43 24 25 45 -15 18 -21 19 -45 1z"/>
<path d="M3228 7958 c-7 -19 2 -38 17 -38 15 0 28 27 19 41 -8 13 -31 11 -36 -3z"/>
<path d="M2693 7953 c-18 -7 -16 -30 3 -37 21 -8 21 -8 27 8 7 17 -13 35 -30 29z"/>
<path d="M2517 7920 c-31 -25 -47 -68 -36 -98 10 -25 49 -31 49 -6 0 8 11 30 25 48 29 38 32 61 9 70 -21 8 -18 9 -47 -14z"/>
<path d="M7974 7905 c-3 -7 1 -92 10 -187 9 -95 20 -229 26 -298 15 -172 25 -239 38 -252 29 -29 30 14 7 262 -39 416 -47 479 -62 484 -8 3 -16 -1 -19 -9z"/>
<path d="M2496 7674 c-12 -31 -6 -111 9 -124 30 -25 45 -5 41 52 -3 29 -5 61 -5 71 -1 22 -37 23 -45 1z"/>
<path d="M2506 7422 c-4 -8 11 -247 38 -572 16 -198 41 -563 55 -799 7 -121 11 -147 26 -157 10 -8 22 -11 26 -8 15 9 10 156 -11 399 -11 127 -25 295 -30 375 -5 80 -14 193 -20 251 -6 58 -16 194 -24 301 -7 108 -16 201 -20 207 -8 13 -32 15 -40 3z"/>
<path d="M8065 6958 c26 -298 48 -484 59 -495 29 -29 28 85 -5 397 -16 161 -18 170 -40 170 -19 0 -20 -5 -14 -72z"/>
<path d="M8177 5983 c-4 -3 -7 -12 -7 -20 0 -15 26 -18 34 -4 7 11 -18 33 -27 24z"/>
<path d="M8182 5848 c-7 -9 -3 -99 13 -315 26 -329 32 -388 48 -417 9 -19 10 -19 23 -1 8 11 12 26 10 34 -3 9 -7 66 -11 126 -3 61 -7 126 -10 145 -5 37 -8 68 -29 283 -14 139 -23 170 -44 145z"/>
<path d="M2634 5747 c-3 -8 -4 -30 -2 -49 2 -26 8 -34 26 -36 22 -3 23 -1 20 45 -2 36 -7 49 -21 51 -9 2 -20 -3 -23 -11z"/>
<path d="M2644 5515 c-8 -34 1 -55 25 -55 23 0 33 23 25 56 -8 33 -42 32 -50 -1z"/>
<path d="M2660 5334 c0 -33 33 -30 38 4 3 17 -2 22 -17 22 -16 0 -21 -6 -21 -26z"/>
<path d="M2669 5128 c-3 -73 5 -256 17 -398 8 -96 21 -256 29 -355 22 -269 34 -412 51 -595 8 -91 19 -221 24 -289 5 -68 13 -128 18 -133 6 -6 19 -7 31 -3 16 5 21 15 21 42 0 36 -41 509 -60 698 -6 55 -17 165 -25 245 -9 80 -17 163 -19 185 -3 22 -10 105 -16 185 -34 424 -34 425 -52 428 -10 2 -18 -2 -19 -10z"/>
<path d="M8255 4990 c-7 -12 2 -30 16 -30 5 0 9 9 9 20 0 21 -15 27 -25 10z"/>
<path d="M8257 4833 c-5 -9 16 -389 33 -588 6 -71 13 -175 16 -230 8 -154 44 -720 51 -810 3 -44 6 -154 7 -245 1 -160 2 -165 22 -168 16 -2 25 5 34 28 20 48 7 381 -34 886 -4 38 -13 177 -22 309 -8 132 -19 269 -24 305 -5 36 -16 157 -25 270 -9 113 -19 215 -21 228 -4 21 -28 31 -37 15z"/>
<path d="M2810 3259 c-7 -11 -9 -37 -6 -57 4 -20 11 -116 16 -212 39 -689 42 -725 56 -747 8 -13 24 -23 36 -23 20 0 21 3 15 93 -4 50 -9 139 -12 197 -29 553 -46 748 -66 761 -21 13 -27 11 -39 -12z"/>
<path d="M2944 3229 c-8 -14 11 -33 25 -25 11 7 4 36 -9 36 -5 0 -12 -5 -16 -11z"/>
<path d="M2945 2988 c2 -46 9 -207 15 -359 13 -329 22 -425 44 -447 14 -14 18 -14 30 -2 11 12 12 43 5 165 -18 320 -30 485 -46 603 -14 105 -19 122 -35 122 -16 0 -17 -8 -13 -82z"/>
<path d="M2158 7753 c7 -3 16 -2 19 1 4 3 -2 6 -13 5 -11 0 -14 -3 -6 -6z"/>
<path d="M2190 7460 c0 -5 5 -10 10 -10 6 0 10 5 10 10 0 6 -4 10 -10 10 -5 0 -10 -4 -10 -10z"/>
<path d="M1956 7181 c-4 -7 -5 -15 -2 -18 9 -9 19 4 14 18 -4 11 -6 11 -12 0z"/>
<path d="M1900 7160 c0 -5 5 -10 10 -10 6 0 10 5 10 10 0 6 -4 10 -10 10 -5 0 -10 -4 -10 -10z"/>
<path d="M1985 6679 c-12 -19 5 -23 22 -6 16 16 16 17 1 17 -9 0 -20 -5 -23 -11z"/>
<path d="M1940 6660 c0 -5 7 -10 15 -10 8 0 15 5 15 10 0 6 -7 10 -15 10 -8 0 -15 -4 -15 -10z"/>
<path d="M1950 6530 c0 -5 5 -10 11 -10 5 0 7 5 4 10 -3 6 -8 10 -11 10 -2 0 -4 -4 -4 -10z"/>
<path d="M2010 6295 c0 -8 4 -15 10 -15 5 0 7 7 4 15 -4 8 -8 15 -10 15 -2 0 -4 -7 -4 -15z"/>
<path d="M2260 6220 c0 -5 4 -10 9 -10 6 0 13 5 16 10 3 6 -1 10 -9 10 -9 0 -16 -4 -16 -10z"/>
<path d="M2305 6031 c-6 -11 9 -23 19 -14 9 9 7 23 -3 23 -6 0 -12 -4 -16 -9z"/>
<path d="M2293 5873 c-20 -7 -15 -22 6 -20 11 0 17 6 14 14 -3 7 -6 13 -7 12 0 0 -7 -3 -13 -6z"/>
<path d="M2310 5680 c0 -5 5 -10 10 -10 6 0 10 5 10 10 0 6 -4 10 -10 10 -5 0 -10 -4 -10 -10z"/>
<path d="M2350 5530 c0 -5 7 -10 16 -10 8 0 12 5 9 10 -3 6 -10 10 -16 10 -5 0 -9 -4 -9 -10z"/>
<path d="M2351 5384 c0 -11 3 -14 6 -6 3 7 2 16 -1 19 -3 4 -6 -2 -5 -13z"/>
<path d="M2015 5070 c-3 -5 -1 -10 4 -10 6 0 11 5 11 10 0 6 -2 10 -4 10 -3 0 -8 -4 -11 -10z"/>
<path d="M2350 5020 c0 -5 5 -10 10 -10 6 0 10 5 10 10 0 6 -4 10 -10 10 -5 0 -10 -4 -10 -10z"/>
<path d="M2502 3909 c2 -7 10 -15 17 -17 8 -3 12 1 9 9 -2 7 -10 15 -17 17 -8 3 -12 -1 -9 -9z"/>
<path d="M2530 3439 c0 -5 5 -7 10 -4 6 3 10 8 10 11 0 2 -4 4 -10 4 -5 0 -10 -5 -10 -11z"/>
<path d="M2505 3219 c-10 -15 3 -25 16 -12 7 7 7 13 1 17 -6 3 -14 1 -17 -5z"/>
<path d="M2557 2913 c-12 -12 -7 -22 8 -17 8 4 15 10 15 15 0 11 -14 12 -23 2z"/>
<path d="M2420 2860 c0 -5 5 -10 10 -10 6 0 10 5 10 10 0 6 -4 10 -10 10 -5 0 -10 -4 -10 -10z"/>
<path d="M2335 2830 c-3 -5 1 -10 10 -10 9 0 13 5 10 10 -3 6 -8 10 -10 10 -2 0 -7 -4 -10 -10z"/>
<path d="M2265 2790 c-3 -5 1 -10 9 -10 9 0 16 5 16 10 0 6 -4 10 -9 10 -6 0 -13 -4 -16 -10z"/>
<path d="M2550 2730 c0 -5 5 -10 10 -10 6 0 10 5 10 10 0 6 -4 10 -10 10 -5 0 -10 -4 -10 -10z"/>
<path d="M2465 2700 c-3 -5 1 -10 10 -10 9 0 13 5 10 10 -3 6 -8 10 -10 10 -2 0 -7 -4 -10 -10z"/>
<path d="M2520 2595 c-14 -8 -19 -14 -10 -14 8 0 26 6 40 14 14 8 19 14 10 14 -8 0 -26 -6 -40 -14z"/>
<path d="M2467 2573 c-10 -9 -9 -23 1 -23 5 0 9 7 9 15 0 17 -1 18 -10 8z"/>
<path d="M2295 2500 c-3 -5 1 -10 10 -10 9 0 13 5 10 10 -3 6 -8 10 -10 10 -2 0 -7 -4 -10 -10z"/>
<path d="M2520 2450 c0 -5 5 -10 11 -10 5 0 7 5 4 10 -3 6 -8 10 -11 10 -2 0 -4 -4 -4 -10z"/>
<path d="M2475 2430 c3 -5 8 -10 11 -10 2 0 4 5 4 10 0 6 -5 10 -11 10 -5 0 -7 -4 -4 -10z"/>
<path d="M2430 2420 c0 -5 5 -10 11 -10 5 0 7 5 4 10 -3 6 -8 10 -11 10 -2 0 -4 -4 -4 -10z"/>
<path d="M2385 2410 c-8 -13 -1 -24 14 -19 6 3 7 10 2 18 -6 10 -10 10 -16 1z"/>
<path d="M2332 2381 c4 -13 18 -16 19 -4 0 4 -5 9 -11 12 -7 2 -11 -2 -8 -8z"/>
<path d="M2605 2340 c-3 -5 1 -10 9 -10 9 0 16 5 16 10 0 6 -4 10 -9 10 -6 0 -13 -4 -16 -10z"/>
<path d="M2534 2318 c-4 -7 -4 -10 1 -6 4 4 14 3 20 -2 9 -8 14 -6 19 5 7 19 -29 21 -40 3z"/>
<path d="M2497 2303 c-10 -9 -9 -23 2 -23 5 0 11 7 15 15 5 15 -5 20 -17 8z"/>
<path d="M2425 2279 c-10 -15 1 -23 20 -15 9 3 13 10 10 16 -8 13 -22 13 -30 -1z"/>
<path d="M2370 2260 c0 -5 5 -10 10 -10 6 0 10 5 10 10 0 6 -4 10 -10 10 -5 0 -10 -4 -10 -10z"/>
<path d="M4993 1913 c-15 -5 -18 -33 -4 -33 8 0 25 30 19 35 -2 1 -9 0 -15 -2z"/>
<path d="M2330 1920 c0 -5 5 -10 10 -10 6 0 10 5 10 10 0 6 -4 10 -10 10 -5 0 -10 -4 -10 -10z"/>
<path d="M2685 1729 c-4 -6 -5 -12 -2 -15 2 -3 7 2 10 11 7 17 1 20 -8 4z"/>
<path d="M1671 2086 c-8 -10 -8 -16 2 -24 24 -20 78 3 63 27 -10 15 -51 14 -65 -3z"/>
<path d="M1820 2085 c0 -8 5 -15 10 -15 6 0 10 7 10 15 0 8 -4 15 -10 15 -5 0 -10 -7 -10 -15z"/>
<path d="M1915 2089 c-10 -15 1 -23 20 -15 9 3 13 10 10 16 -8 13 -22 13 -30 -1z"/>
<path d="M1850 2005 c0 -9 5 -15 11 -13 6 2 11 8 11 13 0 5 -5 11 -11 13 -6 2 -11 -4 -11 -13z"/>
<path d="M8322 1978 c3 -7 13 -15 22 -16 12 -3 17 1 14 10 -3 7 -13 15 -22 16 -12 3 -17 -1 -14 -10z"/>
<path d="M8321 1911 c-21 -14 -5 -43 21 -39 15 2 23 10 23 23 0 22 -22 30 -44 16z"/>
<path d="M1554 1899 c-8 -14 18 -31 30 -19 9 9 0 30 -14 30 -5 0 -12 -5 -16 -11z"/>
<path d="M1462 1883 c5 -25 28 -28 28 -4 0 12 -6 21 -16 21 -9 0 -14 -7 -12 -17z"/>
<path d="M8110 1893 c-143 -11 -313 -25 -345 -28 -22 -2 -71 -7 -110 -10 -38 -4 -80 -8 -92 -10 -12 -2 -63 -6 -115 -10 -51 -3 -165 -13 -253 -21 -200 -19 -200 -19 -485 -43 -483 -42 -599 -52 -765 -61 -93 -6 -228 -17 -300 -25 -71 -8 -168 -17 -215 -20 -108 -7 -259 -21 -475 -45 -220 -25 -257 -28 -520 -45 -247 -16 -384 -28 -560 -49 -66 -8 -192 -20 -280 -26 -88 -6 -203 -16 -255 -21 -188 -19 -309 -29 -540 -44 -499 -33 -540 -37 -540 -60 0 -7 6 -15 13 -18 20 -8 335 9 602 32 132 11 274 23 315 26 41 3 89 8 105 10 17 2 68 7 115 10 47 4 92 8 100 10 8 2 56 6 105 10 50 3 108 8 130 10 22 3 90 9 150 15 61 5 157 14 215 20 58 5 139 13 180 16 91 6 328 28 545 49 245 24 462 44 655 60 96 8 195 17 220 20 25 2 79 7 120 10 223 15 375 27 460 36 52 5 154 13 225 19 72 6 175 15 230 20 55 5 192 16 305 25 298 23 627 53 765 70 66 8 181 19 255 25 73 5 138 14 143 19 17 17 -4 32 -41 29 -20 -2 -48 -4 -62 -5z"/>
<path d="M1317 1873 c-11 -10 13 -32 29 -26 20 8 17 33 -4 33 -10 0 -22 -3 -25 -7z"/>
<path d="M6444 1819 c-12 -19 13 -32 50 -25 51 10 48 36 -3 36 -22 0 -43 -5 -47 -11z"/>
<path d="M6288 1813 c-36 -9 -20 -33 23 -33 33 0 40 3 37 18 -3 17 -29 24 -60 15z"/>
<path d="M6387 1804 c3 -8 12 -13 20 -10 8 3 17 6 19 6 2 0 4 5 4 10 0 6 -11 10 -25 10 -18 0 -23 -4 -18 -16z"/>
<path d="M7581 1749 c-17 -7 -21 -13 -14 -20 15 -15 47 -7 51 14 4 19 -2 20 -37 6z"/>
<path d="M7790 1745 c0 -10 7 -15 18 -13 21 4 19 22 -2 26 -10 2 -16 -3 -16 -13z"/>
<path d="M7410 1714 c0 -17 22 -14 28 4 2 7 -3 12 -12 12 -9 0 -16 -7 -16 -16z"/>
<path d="M5202 1708 c-19 -19 -14 -28 14 -28 18 0 25 5 22 17 -4 21 -21 26 -36 11z"/>
<path d="M7194 1705 c-4 -9 -4 -18 -1 -22 11 -10 59 7 54 20 -6 19 -46 21 -53 2z"/>
<path d="M7053 1703 c-27 -10 -13 -33 21 -33 33 0 62 20 49 33 -7 8 -52 8 -70 0z"/>
<path d="M6830 1670 c0 -13 7 -20 20 -20 13 0 20 7 20 20 0 13 -7 20 -20 20 -13 0 -20 -7 -20 -20z"/>
<path d="M6725 1670 c-4 -6 -3 -16 3 -22 6 -6 12 -6 17 2 4 6 3 16 -3 22 -6 6 -12 6 -17 -2z"/>
<path d="M6930 1670 c0 -5 7 -10 15 -10 8 0 15 5 15 10 0 6 -7 10 -15 10 -8 0 -15 -4 -15 -10z"/>
<path d="M6620 1650 c0 -15 5 -20 18 -18 9 2 17 10 17 18 0 8 -8 16 -17 18 -13 2 -18 -3 -18 -18z"/>
<path d="M6510 1641 c0 -12 6 -21 16 -21 9 0 14 7 12 17 -5 25 -28 28 -28 4z"/>
<path d="M6365 1630 c-9 -15 4 -30 26 -30 12 0 19 7 19 20 0 21 -33 29 -45 10z"/>
<path d="M6237 1615 c-4 -8 -2 -17 3 -20 13 -8 40 6 40 21 0 19 -36 18 -43 -1z"/>
<path d="M6035 1611 c-58 -5 -70 -9 -73 -25 -4 -18 1 -19 89 -13 51 4 97 11 102 16 14 14 -1 31 -26 29 -12 -1 -53 -4 -92 -7z"/>
<path d="M5655 1589 c-246 -23 -287 -32 -270 -59 8 -13 26 -12 305 16 154 16 178 22 166 43 -8 12 -68 12 -201 0z"/>
<path d="M5250 1540 c-11 -7 -12 -12 -3 -21 14 -14 46 -4 41 13 -6 16 -20 19 -38 8z"/>
<path d="M4999 1526 c-2 -2 -87 -9 -189 -15 -102 -7 -219 -16 -260 -22 -99 -13 -252 -28 -370 -35 -191 -13 -225 -18 -225 -34 0 -13 19 -15 125 -12 117 3 170 7 433 32 92 9 591 50 610 50 4 0 7 9 7 20 0 18 -7 20 -63 20 -35 0 -66 -2 -68 -4z"/>
<path d="M1757 1513 c-16 -3 -26 -10 -24 -16 3 -8 29 -11 83 -8 85 3 89 4 79 20 -6 11 -80 12 -138 4z"/>
<path d="M3860 1415 c0 -8 5 -15 10 -15 6 0 10 7 10 15 0 8 -4 15 -10 15 -5 0 -10 -7 -10 -15z"/>
<path d="M3645 1407 c-32 -24 -9 -38 53 -31 58 7 86 19 76 35 -8 14 -108 10 -129 -4z"/>
<path d="M3423 1393 c-22 -8 -14 -23 13 -23 15 0 24 5 22 12 -5 14 -18 18 -35 11z"/>
<path d="M3515 1390 c-3 -6 1 -13 10 -16 19 -8 30 0 20 15 -8 14 -22 14 -30 1z"/>
<path d="M3237 1373 c-13 -12 -7 -23 12 -23 26 0 35 16 15 24 -19 7 -19 7 -27 -1z"/>
<path d="M3335 1370 c-3 -5 1 -10 10 -10 9 0 13 5 10 10 -3 6 -8 10 -10 10 -2 0 -7 -4 -10 -10z"/>
<path d="M3092 1349 c2 -6 8 -10 13 -10 5 0 11 4 13 10 2 6 -4 11 -13 11 -9 0 -15 -5 -13 -11z"/>
<path d="M2783 1333 c-22 -8 -14 -23 13 -23 15 0 24 5 22 12 -5 14 -18 18 -35 11z"/>
</g>
</svg>